<svg 
  height="512pt" 
  viewBox="-26 0 512 512.002" 
  width="512pt" 
  xmlns="http://www.w3.org/2000/svg"
  fill="#ff5b00"
>
  <path d="m420.089844 54.570312h-8.578125c-4.023438-10.414062-14.140625-17.820312-25.957031-17.820312h-9.800782c-1.410156-5.0625-3.210937-10.039062-5.40625-14.890625-6.007812-13.28125-19.304687-21.859375-33.878906-21.859375h-293.378906c-14.574219 0-27.871094 8.578125-33.878906 21.859375-12.28125 27.144531-12.28125 58.28125 0 85.425781 2.515624 5.558594 6.308593 10.292969 10.9375 13.921875v119.792969c0 19.851562 16.148437 36 36 36 19.851562 0 36-16.148438 36-36v-50.59375c0-8.058594 6.554687-14.613281 14.613281-14.613281 8.058593 0 14.609375 6.554687 14.609375 14.613281v9.753906c0 17.558594 14.285156 31.839844 31.839844 31.839844 17.554687 0 31.835937-14.28125 31.835937-31.839844v-27.300781c0-4.523437 3.679687-8.203125 8.203125-8.203125h36.792969c17.703125 0 32.105469-14.402344 32.105469-32.105469v-3.410156h74.316406c14.574218 0 27.875-8.578125 33.878906-21.855469 2.195312-4.851562 4-9.832031 5.410156-14.894531h9.796875c11.816407 0 21.9375-7.40625 25.960938-17.820313h8.578125c11.144531 0 20.210937 9.066407 20.210937 20.210938v44.390625c0 10.734375-8.007812 20.007813-18.628906 21.574219l-169.699219 24.988281c-14.304687 2.105469-27.382812 9.292969-36.832031 20.234375s-14.652344 24.929688-14.652344 39.386719v47.292969c0 .742187.082031 1.46875.238281 2.167968-10.578124.011719-19.179687 8.621094-19.179687 19.199219v23.921875c-6.925781.933594-12.28125 6.882812-12.28125 14.058594v119.285156c0 22.453125 18.269531 40.722656 40.722656 40.722656 22.449219 0 40.71875-18.269531 40.71875-40.722656v-119.285156c0-7.175782-5.355469-13.125-12.28125-14.0625v-23.921875c0-10.242188-8.0625-18.640625-18.179687-19.171875.160156-.707032.242187-1.441406.242187-2.195313v-47.289062c0-19.824219 14.789063-36.949219 34.398438-39.835938l169.699219-24.988281c20.359374-3 35.714843-20.78125 35.714843-41.359375v-44.390625c0-22.171875-18.039062-40.210938-40.210937-40.210938zm-177.9375 77.980469c0 6.675781-5.433594 12.105469-12.105469 12.105469h-36.796875c-15.550781 0-28.203125 12.652344-28.203125 28.203125v27.300781c0 6.527344-5.308594 11.839844-11.835937 11.839844-6.527344 0-11.835938-5.3125-11.835938-11.839844v-9.753906c0-19.085938-15.527344-34.613281-34.613281-34.613281-19.085938 0-34.609375 15.527343-34.609375 34.613281v50.59375c0 8.820312-7.179688 16-16 16-8.824219 0-16-7.179688-16-16v-111.976562c.234375.019531.472656.035156.714844.050781h.035156c.101562.007812.203125.015625.304687.019531.027344 0 .050781.003906.078125.003906.089844.003906.179688.007813.269532.011719.03125 0 .066406.003906.097656.003906.085937.003907.167968.003907.25.007813.039062 0 .078125.003906.113281.003906.082031.003906.160156.003906.238281.007812.042969 0 .082032 0 .125.003907.078125 0 .15625 0 .234375.003906h.125c.117188 0 .234375.003906.351563.003906h199.0625zm94.316406-23.410156h-293.378906c-.097656 0-.195313 0-.292969-.003906-.035156 0-.074219 0-.109375 0-.058594-.003907-.117188-.003907-.179688-.007813-.042968 0-.089843 0-.132812-.003906-.050781-.003906-.101562-.003906-.152344-.007812-.050781-.003907-.101562-.003907-.152344-.007813-.039062-.003906-.078124-.003906-.117187-.007813-.0625-.003906-.121094-.007812-.179687-.011718-.027344-.003906-.050782-.003906-.074219-.007813-.328125-.027343-.652344-.0625-.976563-.105469-.011718-.003906-.023437-.003906-.039062-.007812-.070313-.007812-.144532-.019531-.21875-.03125-.019532-.003906-.039063-.007812-.058594-.011719-.070312-.011719-.140625-.019531-.210938-.03125-.023437-.003906-.046874-.007812-.070312-.011719-.066406-.015624-.132812-.027343-.203125-.039062-.023437-.003906-.046875-.007812-.070313-.015625-.066406-.011719-.132812-.023437-.199218-.039063-.085938-.015624-.175782-.035156-.265625-.054687-.015625-.003906-.035157-.007813-.050781-.011719-.082032-.019531-.164063-.035156-.242188-.054687-.015625-.003907-.027344-.007813-.042969-.011719-.089843-.019531-.175781-.042969-.265625-.066406 0 0 0 0-.003906 0-4.953125-1.289063-9.179688-4.757813-11.347656-9.550782-4.828125-10.667968-7.300782-22.101562-7.425782-33.558593h100.644532c5.519531 0 10-4.476563 10-10 0-5.523438-4.480469-10-10-10h-98.445313c1.230469-5.242188 2.96875-10.394531 5.226563-15.378907 2.773437-6.136718 8.921875-10.101562 15.65625-10.101562h293.378906c6.734375 0 12.878906 3.964844 15.65625 10.101562 9.910156 21.90625 9.910156 47.03125 0 68.9375-2.777344 6.136719-8.921875 10.101563-15.65625 10.101563zm49.085938-36.75h-6.285157c.398438-5.207031.398438-10.429687 0-15.636719h6.285157c4.3125 0 7.816406 3.503906 7.816406 7.816406s-3.503906 7.820313-7.816406 7.820313zm-167.128907 265.417969h-16.878906v-22.996094h16.878906zm12.28125 133.472656c0 11.421875-9.296875 20.71875-20.71875 20.71875-11.425781 0-20.722656-9.292969-20.722656-20.71875v-113.472656h41.441406zm0 0"/><path d="m160.675781 45.480469h-.023437c-5.523438 0-9.988282 4.476562-9.988282 10 0 5.523437 4.488282 10 10.011719 10 5.523438 0 10-4.476563 10-10 0-5.523438-4.476562-10-10-10zm0 0"/></svg>
