
<!-- <?xml version="1.0" encoding="iso-8859-1"?>  -->
<!-- Generator: Adobe Illustrator 19.0.0, SVG Export Plug-In . SVG Version: 6.00 Build 0)  -->
<svg version="1.1" id="Layer_1" xmlns="http://www.w3.org/2000/svg" xmlns:xlink="http://www.w3.org/1999/xlink" x="0px" y="0px"
	 viewBox="0 0 509.287 509.287" style="enable-background:new 0 0 509.287 509.287;" xml:space="preserve">
<circle style="fill:#F1F3F7;" cx="254.644" cy="254.644" r="254.644"/>
<path style="fill:#74594E;" d="M338.395,155.634H170.554V84.429c0-17.632,14.241-32.212,32.212-32.212h103.756
	c17.632,0,32.212,14.241,32.212,32.212v71.205H338.395z M187.846,138.003h132.917V84.429c0-8.138-6.442-14.58-14.58-14.58H202.766
	c-8.138,0-14.58,6.442-14.58,14.58v53.574H187.846z"/>
<path style="fill:#886C60;" d="M441.812,103.756H67.475c-9.494,0-17.293,7.46-17.293,16.954v135.968h409.6V120.71
	C459.444,111.216,451.645,103.756,441.812,103.756z"/>
<path style="fill:#74594E;" d="M55.947,256.678v135.968c0,9.494,7.46,16.954,16.954,16.954h363.486
	c9.494,0,16.954-7.46,16.954-16.954V256.678H55.947z"/>
<rect x="207.852" y="227.179" style="fill:#FBD303;" width="93.245" height="50.522"/>
<g>
</g>
<g>
</g>
<g>
</g>
<g>
</g>
<g>
</g>
<g>
</g>
<g>
</g>
<g>
</g>
<g>
</g>
<g>
</g>
<g>
</g>
<g>
</g>
<g>
</g>
<g>
</g>
<g>
</g>
</svg>
