
<!-- <?xml version="1.0" encoding="iso-8859-1"?> -->
<!-- Generator: Adobe Illustrator 19.0.0, SVG Export Plug-In . SVG Version: 6.00 Build 0)  -->
<svg version="1.1" id="Capa_1" xmlns="http://www.w3.org/2000/svg" xmlns:xlink="http://www.w3.org/1999/xlink" x="0px" y="0px"
	 viewBox="0 0 512 512" style="enable-background:new 0 0 512 512;" xml:space="preserve">
<path style="fill:#4FD255;" d="M452.995,89.378l-2.839-42.59c-0.359-5.39-6.898-7.846-10.717-4.027L422.53,59.669
	C326.798-18.768,185.311-13.313,95.949,76.049c-26.788,26.789-46.036,58.262-57.746,91.784L2.794,191.52
	c-4.49,3.003-3.352,9.896,1.865,11.297l23.101,6.205C15.592,283.765,38.313,363.085,95.949,420.72
	c59.192,59.192,141.253,81.561,217.741,67.129l38.294,18.821c4.847,2.383,10.244-2.054,8.845-7.27l-6.182-23.05
	c31.345-11.854,60.738-30.396,85.973-55.632C531.475,329.865,535.595,185.128,452.995,89.378z M371.685,351.784
	c-12.679,12.679-27.11,22.526-42.51,29.575l-5.357-19.978c-1.399-5.217-8.291-6.358-11.296-1.869l-22.397,33.453
	c-44.322,6.658-91.115-7.055-125.24-41.181c-32.083-32.083-46.138-75.365-42.172-117.261l19.952,5.358
	c5.217,1.401,9.654-3.994,7.273-8.842l-17.753-36.152c7.133-18.173,18.013-35.215,32.699-49.902
	c51.232-51.231,131.001-56.468,188.109-15.778l-14.597,14.597c-3.819,3.819-1.362,10.358,4.026,10.717l40.159,2.677
	C428.498,214.611,424.882,298.586,371.685,351.784z"/>
<g>
	<path style="fill:#2CB855;" d="M475.218,186.273c3.795,0.253,6.943-2.896,6.691-6.691l-1.259-18.886l-2.413-36.198
		c-7.245-12.26-15.663-24.018-25.241-35.121l4.378,65.67c0.253,3.795-2.896,6.943-6.691,6.691l-68.102-4.54
		c6.05,7.564,11.247,15.582,15.577,23.938l58.174,3.879L475.218,186.273z"/>
	<path style="fill:#2CB855;" d="M313.69,487.849l-59.08-29.039c-3.414-1.677-4.567-5.978-2.451-9.139l37.966-56.705
		c-9.436,1.418-18.981,1.921-28.494,1.49l-32.455,48.474l-10.531,15.729c-2.116,3.16-0.963,7.461,2.451,9.139l16.987,8.349
		l32.411,15.931C284.964,491.946,299.423,490.54,313.69,487.849z"/>
	<path style="fill:#2CB855;" d="M102.115,133.647l30.071,61.24c3.446-8.779,7.774-17.287,12.984-25.398l-25.711-52.362l-8.343-16.99
		c-1.676-3.414-5.977-4.569-9.138-2.454l-15.733,10.524l-30.13,20.155c-7.198,12.708-13.176,25.919-17.91,39.47l54.772-36.64
		C96.137,129.077,100.438,130.232,102.115,133.647z"/>
</g>
<g>
</g>
<g>
</g>
<g>
</g>
<g>
</g>
<g>
</g>
<g>
</g>
<g>
</g>
<g>
</g>
<g>
</g>
<g>
</g>
<g>
</g>
<g>
</g>
<g>
</g>
<g>
</g>
<g>
</g>
</svg>
