
<svgxmlns="http://www.w3.org/2000/svg" 
  xmlns:xlink="http://www.w3.org/1999/xlink" 
  style="overflow: hidden; max-width: 100%;" 
  version="1.1">
	<defs>
	<symbol 
      version="1.1" 
      id="phone-svg" 
      viewBox="0 0 34.546 34.546" 
      style="enable-background:new 0 0 34.546 34.546;" 
      xml:space="preserve"
    >
      <title>articles</title>
      <path d="M29.33,19.339c-2.326-0.545-5.3-1.969-6.377-3.737c-0.603-0.984-0.666-2.094-0.179-3.042
      c0.027-0.051,0.074-0.128,0.109-0.188c-0.028-0.209,0.021-0.486,0.172-0.847c0.011-0.024,0.012-0.027,0.02-0.044H11.122
      c0.006,0.014,0.006,0.014,0.014,0.032c0,0,0.001,0.001,0.001,0.002c0.268,0.418,0.502,0.792,0.627,1.033
      c0.495,0.961,0.431,2.07-0.17,3.055c-1.08,1.77-4.053,3.193-6.381,3.738L4.57,30.124c-0.07,1.183,0.705,2.149,1.723,2.149h21.958
      c1.018,0,1.792-0.967,1.721-2.149L29.33,19.339z M13.683,26.765h-2.062c-0.38,0-0.688-0.309-0.688-0.688s0.308-0.688,0.688-0.688
      h2.062c0.379,0,0.688,0.309,0.688,0.688S14.062,26.765,13.683,26.765z M13.683,24.143h-2.062c-0.38,0-0.688-0.308-0.688-0.687
      c0-0.382,0.308-0.688,0.688-0.688h2.062c0.379,0,0.688,0.306,0.688,0.688C14.371,23.835,14.062,24.143,13.683,24.143z
      M13.683,21.521h-2.062c-0.38,0-0.688-0.308-0.688-0.688c0-0.379,0.308-0.688,0.688-0.688h2.062c0.379,0,0.688,0.309,0.688,0.688
      S14.062,21.521,13.683,21.521z M18.304,26.765h-2.061c-0.38,0-0.688-0.309-0.688-0.688s0.309-0.688,0.688-0.688h2.062
      c0.379,0,0.688,0.309,0.688,0.688C18.991,26.456,18.683,26.765,18.304,26.765z M18.304,24.143h-2.061
      c-0.38,0-0.688-0.308-0.688-0.687c0-0.382,0.309-0.688,0.688-0.688h2.062c0.379,0,0.688,0.306,0.688,0.688
      C18.991,23.835,18.683,24.143,18.304,24.143z M18.304,21.521h-2.061c-0.38,0-0.688-0.308-0.688-0.688
      c0-0.379,0.309-0.688,0.688-0.688h2.062c0.379,0,0.688,0.309,0.688,0.688C18.991,21.212,18.683,21.521,18.304,21.521z
      M22.924,26.765h-2.062c-0.379,0-0.687-0.309-0.687-0.688s0.308-0.688,0.687-0.688h2.062c0.381,0,0.688,0.309,0.688,0.688
      C23.612,26.456,23.306,26.765,22.924,26.765z M22.924,24.143h-2.062c-0.379,0-0.687-0.308-0.687-0.687
      c0-0.382,0.308-0.688,0.687-0.688h2.062c0.381,0,0.688,0.306,0.688,0.688C23.612,23.835,23.306,24.143,22.924,24.143z
      M22.924,21.521h-2.062c-0.379,0-0.687-0.308-0.687-0.688c0-0.379,0.308-0.688,0.687-0.688h2.062c0.381,0,0.688,0.309,0.688,0.688
      C23.612,21.212,23.306,21.521,22.924,21.521z M34.372,13.114c-0.043,0.216-0.045,0.441-0.13,0.646
      c-0.497,1.202-1.429,2.197-2.115,3.305c-0.885,1.414-8.406-1.634-7.437-3.521c0.365-0.698,1.789-2.626,1.896-3.401
      c0.098-0.692-0.818-1.233-1.664-1.302c-2.232-0.181-5.083-0.017-7.452-0.002v0.002c-0.063,0-0.133-0.001-0.198-0.001
      c-0.064,0-0.134,0.001-0.197,0.001V8.839c-2.369-0.015-5.22-0.178-7.452,0.002c-0.846,0.069-1.762,0.61-1.665,1.302
      c0.108,0.775,1.531,2.703,1.896,3.401c0.971,1.887-6.55,4.935-7.435,3.521c-0.688-1.108-1.618-2.103-2.116-3.305
      c-0.084-0.205-0.086-0.43-0.129-0.646c-1.104-4.93,3.148-9.96,9.551-10.476c2.445-0.198,4.896-0.31,7.35-0.354V2.272
      c0.066,0.001,0.131,0.005,0.197,0.006c0.065-0.001,0.131-0.005,0.198-0.006v0.012c2.452,0.044,4.903,0.156,7.35,0.354
      C31.222,3.153,35.474,8.185,34.372,13.114z"/>
    </symbol>

    <symbol id='mail-svg' xml:space="preserve" viewBox="0 0 483.3 483.3" style="enable-background:new 0 0 483.3 483.3;">
      <path d="M424.3,57.75H59.1c-32.6,0-59.1,26.5-59.1,59.1v249.6c0,32.6,26.5,59.1,59.1,59.1h365.1c32.6,0,59.1-26.5,59.1-59.1
        v-249.5C483.4,84.35,456.9,57.75,424.3,57.75z M456.4,366.45c0,17.7-14.4,32.1-32.1,32.1H59.1c-17.7,0-32.1-14.4-32.1-32.1v-249.5
        c0-17.7,14.4-32.1,32.1-32.1h365.1c17.7,0,32.1,14.4,32.1,32.1v249.5H456.4z"/>
      <path d="M304.8,238.55l118.2-106c5.5-5,6-13.5,1-19.1c-5-5.5-13.5-6-19.1-1l-163,146.3l-31.8-28.4c-0.1-0.1-0.2-0.2-0.2-0.3
        c-0.7-0.7-1.4-1.3-2.2-1.9L78.3,112.35c-5.6-5-14.1-4.5-19.1,1.1c-5,5.6-4.5,14.1,1.1,19.1l119.6,106.9L60.8,350.95
        c-5.4,5.1-5.7,13.6-0.6,19.1c2.7,2.8,6.3,4.3,9.9,4.3c3.3,0,6.6-1.2,9.2-3.6l120.9-113.1l32.8,29.3c2.6,2.3,5.8,3.4,9,3.4
        c3.2,0,6.5-1.2,9-3.5l33.7-30.2l120.2,114.2c2.6,2.5,6,3.7,9.3,3.7c3.6,0,7.1-1.4,9.8-4.2c5.1-5.4,4.9-14-0.5-19.1L304.8,238.55z"
        />
    </symbol>

    <symbol id='cargo-svg' xml:space="preserve" viewBox="0 0 512 512"  style="enable-background:new 0 0 512 512;">
      <g>
      <g>
        <path
          d="M476.158,231.363l-13.259-53.035c3.625-0.77,6.345-3.986,6.345-7.839v-8.551c0-18.566-15.105-33.67-33.67-33.67h-60.392
          V110.63c0-9.136-7.432-16.568-16.568-16.568H50.772c-9.136,0-16.568,7.432-16.568,16.568V256c0,4.427,3.589,8.017,8.017,8.017
          c4.427,0,8.017-3.589,8.017-8.017V110.63c0-0.295,0.239-0.534,0.534-0.534h307.841c0.295,0,0.534,0.239,0.534,0.534v145.372
          c0,4.427,3.589,8.017,8.017,8.017c4.427,0,8.017-3.589,8.017-8.017v-9.088h94.569c0.008,0,0.014,0.002,0.021,0.002
          c0.008,0,0.015-0.001,0.022-0.001c11.637,0.008,21.518,7.646,24.912,18.171h-24.928c-4.427,0-8.017,3.589-8.017,8.017v17.102
          c0,13.851,11.268,25.119,25.119,25.119h9.086v35.273h-20.962c-6.886-19.883-25.787-34.205-47.982-34.205
          s-41.097,14.322-47.982,34.205h-3.86v-60.393c0-4.427-3.589-8.017-8.017-8.017c-4.427,0-8.017,3.589-8.017,8.017v60.391H192.817
          c-6.886-19.883-25.787-34.205-47.982-34.205s-41.097,14.322-47.982,34.205H50.772c-0.295,0-0.534-0.239-0.534-0.534v-17.637
          h34.739c4.427,0,8.017-3.589,8.017-8.017s-3.589-8.017-8.017-8.017H8.017c-4.427,0-8.017,3.589-8.017,8.017
          s3.589,8.017,8.017,8.017h26.188v17.637c0,9.136,7.432,16.568,16.568,16.568h43.304c-0.002,0.178-0.014,0.355-0.014,0.534
          c0,27.996,22.777,50.772,50.772,50.772s50.772-22.776,50.772-50.772c0-0.18-0.012-0.356-0.014-0.534h180.67
          c-0.002,0.178-0.014,0.355-0.014,0.534c0,27.996,22.777,50.772,50.772,50.772c27.995,0,50.772-22.776,50.772-50.772
          c0-0.18-0.012-0.356-0.014-0.534h26.203c4.427,0,8.017-3.589,8.017-8.017v-85.511C512,251.989,496.423,234.448,476.158,231.363z
          M375.182,144.301h60.392c9.725,0,17.637,7.912,17.637,17.637v0.534h-78.029V144.301z M375.182,230.881v-52.376h71.235
          l13.094,52.376H375.182z M144.835,401.904c-19.155,0-34.739-15.583-34.739-34.739s15.584-34.739,34.739-34.739
          c19.155,0,34.739,15.583,34.739,34.739S163.99,401.904,144.835,401.904z M427.023,401.904c-19.155,0-34.739-15.583-34.739-34.739
          s15.584-34.739,34.739-34.739c19.155,0,34.739,15.583,34.739,34.739S446.178,401.904,427.023,401.904z M495.967,299.29h-9.086
          c-5.01,0-9.086-4.076-9.086-9.086v-9.086h18.171V299.29z"
        />
      </g>
      </g>
      <g>
        <g>
          <path
            d="M144.835,350.597c-9.136,0-16.568,7.432-16.568,16.568c0,9.136,7.432,16.568,16.568,16.568
        c9.136,0,16.568-7.432,16.568-16.568C161.403,358.029,153.971,350.597,144.835,350.597z"
          />
        </g>
      </g>
      <g>
        <g>
          <path
            d="M427.023,350.597c-9.136,0-16.568,7.432-16.568,16.568c0,9.136,7.432,16.568,16.568,16.568
        c9.136,0,16.568-7.432,16.568-16.568C443.591,358.029,436.159,350.597,427.023,350.597z"
          />
        </g>
      </g>
      <g>
        <g>
          <path
            d="M332.96,316.393H213.244c-4.427,0-8.017,3.589-8.017,8.017s3.589,8.017,8.017,8.017H332.96
        c4.427,0,8.017-3.589,8.017-8.017S337.388,316.393,332.96,316.393z"
          />
        </g>
      </g>
      <g>
        <g>
          <path
            d="M127.733,282.188H25.119c-4.427,0-8.017,3.589-8.017,8.017s3.589,8.017,8.017,8.017h102.614
        c4.427,0,8.017-3.589,8.017-8.017S132.16,282.188,127.733,282.188z"
          />
        </g>
      </g>
      <g>
        <g>
          <path
            d="M278.771,173.37c-3.13-3.13-8.207-3.13-11.337,0.001l-71.292,71.291l-37.087-37.087c-3.131-3.131-8.207-3.131-11.337,0
        c-3.131,3.131-3.131,8.206,0,11.337l42.756,42.756c1.565,1.566,3.617,2.348,5.668,2.348s4.104-0.782,5.668-2.348l76.96-76.96
        C281.901,181.576,281.901,176.501,278.771,173.37z"
          />
        </g>
      </g>
    </symbol>

    <symbol id='fence-svg' xml:space="preserve" viewBox="0 0 512 512"  style="enable-background:new 0 0 512 512;" >
      <g>
        <path d="M496.513,53.736h-23.146c-8.54,0-15.487,6.947-15.487,15.487v21.582H54.119V69.223c0-8.54-6.947-15.487-15.486-15.487
          H15.486C6.947,53.736,0,60.683,0,69.223v279.091v102.45c0,4.142,3.358,7.5,7.5,7.5h497c4.142,0,7.5-3.358,7.5-7.5V69.223
          C512,60.683,505.052,53.736,496.513,53.736z M472.88,69.223c0-0.269,0.219-0.487,0.487-0.487h23.146
          c0.269,0,0.487,0.218,0.487,0.487v263.074c-0.022-0.005-0.045-0.01-0.067-0.015c-0.038-0.009-0.076-0.016-0.114-0.025
          c-7.889-1.793-15.9-3.026-23.939-3.906V69.223z M54.119,105.805H457.88v22.247H54.119V105.805z M350.661,313.276l-19.715-19.716
          l19.715-19.714l19.715,19.715L350.661,313.276z M351.042,334.869c-0.311,0.056-0.621,0.114-0.932,0.17l0.551-0.551
          L351.042,334.869z M168.734,313.274L149.02,293.56l19.714-19.715l19.715,19.715L168.734,313.274z M170.508,336.261
          c-1.015-0.157-2.049-0.31-3.085-0.463l1.311-1.311L170.508,336.261z M58.056,263.239l19.714-19.714l19.715,19.715L77.77,282.954
          L58.056,263.239z M67.165,293.56L54.12,306.605v-26.091L67.165,293.56z M127.807,232.918l-19.715,19.715l-19.715-19.715
          l19.715-19.715L127.807,232.918z M118.698,202.597l19.715-19.715l19.715,19.715l-19.715,19.715L118.698,202.597z M138.413,243.524
          l19.715,19.715l-19.715,19.715l-19.715-19.715L138.413,243.524z M149.019,232.918l19.715-19.715l19.714,19.714l-19.714,19.716
          L149.019,232.918z M309.733,232.917l-19.715,19.715l-19.714-19.714l19.715-19.715L309.733,232.917z M300.625,202.597
          l19.715-19.715l19.714,19.715l-19.715,19.714L300.625,202.597z M259.697,222.312l-19.715-19.715l19.715-19.715l19.715,19.715
          L259.697,222.312z M249.092,232.919l-19.714,19.715l-19.716-19.716l19.715-19.714L249.092,232.919z M199.055,222.311
          l-19.714-19.714l19.714-19.714l19.715,19.714L199.055,222.311z M199.055,243.524l19.715,19.715l-19.715,19.715l-19.715-19.715
          L199.055,243.524z M229.377,273.845l19.715,19.715l-19.715,19.715l-19.715-19.715L229.377,273.845z M239.983,263.239
          l19.714-19.715l19.715,19.715l-19.715,19.714L239.983,263.239z M290.019,273.846l19.715,19.714l-19.715,19.715l-19.715-19.715
          L290.019,273.846z M300.624,263.239l19.715-19.715l19.715,19.715l-19.715,19.714L300.624,263.239z M330.946,232.918l19.715-19.714
          l19.714,19.714l-19.714,19.715L330.946,232.918z M361.266,202.597l19.715-19.715l19.715,19.715l-19.715,19.715L361.266,202.597z
          M380.981,243.524l19.715,19.715l-19.715,19.715l-19.714-19.715L380.981,243.524z M391.587,232.918l19.715-19.715l19.715,19.715
          l-19.715,19.715L391.587,232.918z M391.588,172.275l19.715-19.715l19.715,19.715l-19.715,19.715L391.588,172.275z M380.982,161.67
          l-18.618-18.618H399.6L380.982,161.67z M370.376,172.275l-19.715,19.715l-19.715-19.715l19.715-19.715L370.376,172.275z
          M320.34,161.67l-18.618-18.618h37.236L320.34,161.67z M309.734,172.275l-19.715,19.715l-19.715-19.715l19.715-19.715
          L309.734,172.275z M259.697,161.67l-18.618-18.618h37.236L259.697,161.67z M249.091,172.276l-19.715,19.714l-19.715-19.714
          l19.715-19.715L249.091,172.276z M199.055,161.67l-18.618-18.618h37.236L199.055,161.67z M188.448,172.276l-19.714,19.714
          l-19.715-19.715l19.714-19.714L188.448,172.276z M138.413,161.67l-18.618-18.618h37.236L138.413,161.67z M127.806,172.275
          l-19.714,19.715l-19.715-19.714l19.715-19.715L127.806,172.275z M77.771,161.67l-18.618-18.618h37.236L77.771,161.67z
          M97.486,202.597l-19.715,19.715l-19.715-19.715l19.715-19.715L97.486,202.597z M108.092,273.845l19.715,19.714l-19.715,19.715
          L88.377,293.56L108.092,273.845z M138.414,304.166l19.715,19.715l-9.577,9.577c-6.959-0.706-14.28-1.278-21.949-1.673
          l-7.904-7.904L138.414,304.166z M199.056,304.167l19.714,19.715l-18.236,18.236c-1.263-0.299-2.545-0.595-3.845-0.889
          l-17.348-17.348L199.056,304.167z M229.376,334.488l19.715,19.715l-2.365,2.366c-7.042-2.859-16.909-6.459-29.379-10.051
          L229.376,334.488z M239.982,323.881l19.715-19.715l19.715,19.715l-19.715,19.715L239.982,323.881z M290.018,334.487l11.65,11.65
          c-10.228,2.826-20.3,5.924-30.154,9.276l-1.211-1.211L290.018,334.487z M300.625,323.881l19.715-19.715l19.715,19.715
          l-16.738,16.738c-1.606,0.376-3.209,0.757-4.808,1.146L300.625,323.881z M380.982,304.166l19.715,19.715l-4.768,4.768
          c-8.736,0.828-17.642,1.898-26.67,3.224l-7.992-7.992L380.982,304.166z M391.588,293.56l19.715-19.715l19.715,19.715
          l-19.715,19.715L391.588,293.56z M441.624,304.166l16.256,16.256v6.705c-10.437-0.592-21.51-0.702-33.056-0.331l-2.915-2.915
          L441.624,304.166z M452.23,293.559l5.65-5.649v11.299L452.23,293.559z M441.624,282.953l-19.715-19.714l19.715-19.715
          l16.256,16.256v6.917L441.624,282.953z M452.23,232.917l5.65-5.649v11.299L452.23,232.917z M441.624,222.311l-19.715-19.715
          l19.715-19.715l16.256,16.257v6.917L441.624,222.311z M452.23,172.276l5.65-5.65v11.3L452.23,172.276z M441.624,161.669
          l-18.618-18.618h34.874v2.362L441.624,161.669z M54.119,159.23l13.045,13.045l-13.045,13.046V159.23z M54.119,219.873
          l13.045,13.045l-13.045,13.045V219.873z M77.771,304.166l19.715,19.715l-7.477,7.477c-11.426,0.314-23.406,1.062-35.889,2.337
          v-5.877h-0.001L77.771,304.166z M15,69.223c0-0.269,0.218-0.487,0.486-0.487h23.146c0.268,0,0.486,0.218,0.486,0.487v266.218
          h0.001c-8.067,1.08-16.112,2.348-24.119,3.805V69.223z M497.001,443.267H146.15v-0.003c6.522-6.235,13.423-12.068,20.588-17.549
          c6.613-5.058,13.457-9.826,20.475-14.306c3.491-2.229,4.514-6.866,2.285-10.357c-2.2-3.446-6.915-4.494-10.365-2.292
          c-7.841,5.007-15.257,10.216-22.245,15.599c-11.222,8.644-21.898,18.119-31.45,28.593c-0.096,0.104-0.196,0.208-0.291,0.312H15
          v-88.742c0.787-0.148,1.571-0.305,2.359-0.448c9.05-1.652,18.338-3.081,27.542-4.237c60.485-7.552,109.438-2.102,141.765,4.569
          c21.795,4.497,38.706,10.035,49.927,14.319c-10.14,4.336-20.145,9.037-29.92,14.145c-3.672,1.917-5.094,6.448-3.177,10.12
          c1.892,3.623,6.495,5.078,10.125,3.181c4.451-2.325,8.95-4.558,13.487-6.708c42.567-20.19,93.197-35.232,144.303-42.743
          c33.92-4.985,65.94-6.352,92.709-4.165c0.208,0.035,0.419,0.066,0.633,0.084c12.073,1.013,22.876,2.731,32.248,5.099V443.267z"/>
      </g>
    </symbol>

    <symbol id='measure-svg' xml:space="preserve" viewBox="1 -69 544.607 544" >
      <g id="surface1">
      <path
          d="M 186.742188 198.046875 C 231.867188 198.046875 268.667969 170.335938 268.667969 136.386719 C 268.667969 102.433594 231.976562 74.722656 186.742188 74.722656 C 141.507812 74.722656 104.816406 102.433594 104.816406 136.386719 C 104.816406 170.335938 141.617188 198.046875 186.742188 198.046875 Z M 186.742188 96.625 C 219.597656 96.625 246.761719 114.808594 246.761719 136.382812 C 246.761719 157.960938 219.269531 176.140625 186.742188 176.140625 C 154.210938 176.140625 126.71875 157.960938 126.71875 136.382812 C 126.71875 114.808594 154.210938 96.515625 186.742188 96.515625 Z M 186.742188 96.625 "
        />
        <path
          d="M 534.046875 250.292969 L 372.386719 250.292969 L 372.386719 136.273438 C 372.386719 61.359375 289.039062 0.355469 186.195312 0.355469 C 83.347656 0.355469 0 61.359375 0 136.273438 L 0 270.992188 C 0 339.992188 70.644531 396.945312 161.660156 405.597656 L 163.523438 405.597656 C 171.078125 406.257812 178.746094 406.804688 186.523438 406.804688 L 534.046875 406.804688 C 540.09375 406.804688 545 401.898438 545 395.851562 L 545 261.242188 C 545 255.199219 540.09375 250.292969 534.046875 250.292969 Z M 186.742188 22.367188 C 277.097656 22.367188 351.03125 73.515625 351.03125 136.386719 C 351.03125 199.253906 277.539062 250.402344 186.742188 250.402344 C 95.945312 250.402344 22.453125 199.253906 22.453125 136.382812 C 22.453125 73.515625 96.492188 22.367188 186.742188 22.367188 Z M 351.03125 200.238281 L 351.03125 250.292969 L 287.503906 250.292969 C 312.300781 239.054688 333.933594 221.859375 350.480469 200.238281 Z M 523.09375 384.898438 L 501.1875 384.898438 L 501.1875 329.476562 C 501.1875 323.433594 496.28125 318.523438 490.238281 318.523438 C 484.191406 318.523438 479.285156 323.429688 479.285156 329.476562 L 479.285156 385.007812 L 435.472656 385.007812 L 435.472656 354.886719 C 435.472656 348.839844 430.566406 343.933594 424.519531 343.933594 C 418.472656 343.933594 413.566406 348.839844 413.566406 354.886719 L 413.566406 385.007812 L 369.757812 385.007812 L 369.757812 354.886719 C 369.757812 348.839844 364.851562 343.933594 358.804688 343.933594 C 352.757812 343.933594 347.851562 348.839844 347.851562 354.886719 L 347.851562 385.007812 L 304.039062 385.007812 L 304.039062 329.476562 C 304.039062 323.433594 299.132812 318.523438 293.085938 318.523438 C 287.042969 318.523438 282.132812 323.429688 282.132812 329.476562 L 282.132812 385.007812 L 240.1875 385.007812 L 240.1875 354.886719 C 240.1875 348.839844 235.277344 343.933594 229.234375 343.933594 C 223.1875 343.933594 218.28125 348.839844 218.28125 354.886719 L 218.28125 385.007812 L 186.734375 385.007812 C 182.574219 385.007812 178.523438 385.007812 174.46875 385.007812 L 174.46875 354.886719 C 174.46875 348.839844 169.5625 343.933594 163.515625 343.933594 C 157.46875 343.933594 152.5625 348.839844 152.5625 354.886719 L 152.5625 382.378906 C 78.640625 371.425781 23 325.644531 23 270.882812 L 23 200.238281 C 54.324219 243.0625 115.988281 272.195312 187.289062 272.195312 L 523.09375 272.195312 Z M 523.09375 384.898438 "
        />
      </g>
    </symbol>

    <symbol id='brush-svg' xml:space="preserve" viewBox="-26 0 512 512.002"  >
      <path d="m420.089844 54.570312h-8.578125c-4.023438-10.414062-14.140625-17.820312-25.957031-17.820312h-9.800782c-1.410156-5.0625-3.210937-10.039062-5.40625-14.890625-6.007812-13.28125-19.304687-21.859375-33.878906-21.859375h-293.378906c-14.574219 0-27.871094 8.578125-33.878906 21.859375-12.28125 27.144531-12.28125 58.28125 0 85.425781 2.515624 5.558594 6.308593 10.292969 10.9375 13.921875v119.792969c0 19.851562 16.148437 36 36 36 19.851562 0 36-16.148438 36-36v-50.59375c0-8.058594 6.554687-14.613281 14.613281-14.613281 8.058593 0 14.609375 6.554687 14.609375 14.613281v9.753906c0 17.558594 14.285156 31.839844 31.839844 31.839844 17.554687 0 31.835937-14.28125 31.835937-31.839844v-27.300781c0-4.523437 3.679687-8.203125 8.203125-8.203125h36.792969c17.703125 0 32.105469-14.402344 32.105469-32.105469v-3.410156h74.316406c14.574218 0 27.875-8.578125 33.878906-21.855469 2.195312-4.851562 4-9.832031 5.410156-14.894531h9.796875c11.816407 0 21.9375-7.40625 25.960938-17.820313h8.578125c11.144531 0 20.210937 9.066407 20.210937 20.210938v44.390625c0 10.734375-8.007812 20.007813-18.628906 21.574219l-169.699219 24.988281c-14.304687 2.105469-27.382812 9.292969-36.832031 20.234375s-14.652344 24.929688-14.652344 39.386719v47.292969c0 .742187.082031 1.46875.238281 2.167968-10.578124.011719-19.179687 8.621094-19.179687 19.199219v23.921875c-6.925781.933594-12.28125 6.882812-12.28125 14.058594v119.285156c0 22.453125 18.269531 40.722656 40.722656 40.722656 22.449219 0 40.71875-18.269531 40.71875-40.722656v-119.285156c0-7.175782-5.355469-13.125-12.28125-14.0625v-23.921875c0-10.242188-8.0625-18.640625-18.179687-19.171875.160156-.707032.242187-1.441406.242187-2.195313v-47.289062c0-19.824219 14.789063-36.949219 34.398438-39.835938l169.699219-24.988281c20.359374-3 35.714843-20.78125 35.714843-41.359375v-44.390625c0-22.171875-18.039062-40.210938-40.210937-40.210938zm-177.9375 77.980469c0 6.675781-5.433594 12.105469-12.105469 12.105469h-36.796875c-15.550781 0-28.203125 12.652344-28.203125 28.203125v27.300781c0 6.527344-5.308594 11.839844-11.835937 11.839844-6.527344 0-11.835938-5.3125-11.835938-11.839844v-9.753906c0-19.085938-15.527344-34.613281-34.613281-34.613281-19.085938 0-34.609375 15.527343-34.609375 34.613281v50.59375c0 8.820312-7.179688 16-16 16-8.824219 0-16-7.179688-16-16v-111.976562c.234375.019531.472656.035156.714844.050781h.035156c.101562.007812.203125.015625.304687.019531.027344 0 .050781.003906.078125.003906.089844.003906.179688.007813.269532.011719.03125 0 .066406.003906.097656.003906.085937.003907.167968.003907.25.007813.039062 0 .078125.003906.113281.003906.082031.003906.160156.003906.238281.007812.042969 0 .082032 0 .125.003907.078125 0 .15625 0 .234375.003906h.125c.117188 0 .234375.003906.351563.003906h199.0625zm94.316406-23.410156h-293.378906c-.097656 0-.195313 0-.292969-.003906-.035156 0-.074219 0-.109375 0-.058594-.003907-.117188-.003907-.179688-.007813-.042968 0-.089843 0-.132812-.003906-.050781-.003906-.101562-.003906-.152344-.007812-.050781-.003907-.101562-.003907-.152344-.007813-.039062-.003906-.078124-.003906-.117187-.007813-.0625-.003906-.121094-.007812-.179687-.011718-.027344-.003906-.050782-.003906-.074219-.007813-.328125-.027343-.652344-.0625-.976563-.105469-.011718-.003906-.023437-.003906-.039062-.007812-.070313-.007812-.144532-.019531-.21875-.03125-.019532-.003906-.039063-.007812-.058594-.011719-.070312-.011719-.140625-.019531-.210938-.03125-.023437-.003906-.046874-.007812-.070312-.011719-.066406-.015624-.132812-.027343-.203125-.039062-.023437-.003906-.046875-.007812-.070313-.015625-.066406-.011719-.132812-.023437-.199218-.039063-.085938-.015624-.175782-.035156-.265625-.054687-.015625-.003906-.035157-.007813-.050781-.011719-.082032-.019531-.164063-.035156-.242188-.054687-.015625-.003907-.027344-.007813-.042969-.011719-.089843-.019531-.175781-.042969-.265625-.066406 0 0 0 0-.003906 0-4.953125-1.289063-9.179688-4.757813-11.347656-9.550782-4.828125-10.667968-7.300782-22.101562-7.425782-33.558593h100.644532c5.519531 0 10-4.476563 10-10 0-5.523438-4.480469-10-10-10h-98.445313c1.230469-5.242188 2.96875-10.394531 5.226563-15.378907 2.773437-6.136718 8.921875-10.101562 15.65625-10.101562h293.378906c6.734375 0 12.878906 3.964844 15.65625 10.101562 9.910156 21.90625 9.910156 47.03125 0 68.9375-2.777344 6.136719-8.921875 10.101563-15.65625 10.101563zm49.085938-36.75h-6.285157c.398438-5.207031.398438-10.429687 0-15.636719h6.285157c4.3125 0 7.816406 3.503906 7.816406 7.816406s-3.503906 7.820313-7.816406 7.820313zm-167.128907 265.417969h-16.878906v-22.996094h16.878906zm12.28125 133.472656c0 11.421875-9.296875 20.71875-20.71875 20.71875-11.425781 0-20.722656-9.292969-20.722656-20.71875v-113.472656h41.441406zm0 0"/><path d="m160.675781 45.480469h-.023437c-5.523438 0-9.988282 4.476562-9.988282 10 0 5.523437 4.488282 10 10.011719 10 5.523438 0 10-4.476563 10-10 0-5.523438-4.476562-10-10-10zm0 0"/></svg>
    </symbol>
		<g id="img-brush">
			<path xmlns="http://www.w3.org/2000/svg" d="m420.089844 54.570312h-8.578125c-4.023438-10.414062-14.140625-17.820312-25.957031-17.820312h-9.800782c-1.410156-5.0625-3.210937-10.039062-5.40625-14.890625-6.007812-13.28125-19.304687-21.859375-33.878906-21.859375h-293.378906c-14.574219 0-27.871094 8.578125-33.878906 21.859375-12.28125 27.144531-12.28125 58.28125 0 85.425781 2.515624 5.558594 6.308593 10.292969 10.9375 13.921875v119.792969c0 19.851562 16.148437 36 36 36 19.851562 0 36-16.148438 36-36v-50.59375c0-8.058594 6.554687-14.613281 14.613281-14.613281 8.058593 0 14.609375 6.554687 14.609375 14.613281v9.753906c0 17.558594 14.285156 31.839844 31.839844 31.839844 17.554687 0 31.835937-14.28125 31.835937-31.839844v-27.300781c0-4.523437 3.679687-8.203125 8.203125-8.203125h36.792969c17.703125 0 32.105469-14.402344 32.105469-32.105469v-3.410156h74.316406c14.574218 0 27.875-8.578125 33.878906-21.855469 2.195312-4.851562 4-9.832031 5.410156-14.894531h9.796875c11.816407 0 21.9375-7.40625 25.960938-17.820313h8.578125c11.144531 0 20.210937 9.066407 20.210937 20.210938v44.390625c0 10.734375-8.007812 20.007813-18.628906 21.574219l-169.699219 24.988281c-14.304687 2.105469-27.382812 9.292969-36.832031 20.234375s-14.652344 24.929688-14.652344 39.386719v47.292969c0 .742187.082031 1.46875.238281 2.167968-10.578124.011719-19.179687 8.621094-19.179687 19.199219v23.921875c-6.925781.933594-12.28125 6.882812-12.28125 14.058594v119.285156c0 22.453125 18.269531 40.722656 40.722656 40.722656 22.449219 0 40.71875-18.269531 40.71875-40.722656v-119.285156c0-7.175782-5.355469-13.125-12.28125-14.0625v-23.921875c0-10.242188-8.0625-18.640625-18.179687-19.171875.160156-.707032.242187-1.441406.242187-2.195313v-47.289062c0-19.824219 14.789063-36.949219 34.398438-39.835938l169.699219-24.988281c20.359374-3 35.714843-20.78125 35.714843-41.359375v-44.390625c0-22.171875-18.039062-40.210938-40.210937-40.210938zm-177.9375 77.980469c0 6.675781-5.433594 12.105469-12.105469 12.105469h-36.796875c-15.550781 0-28.203125 12.652344-28.203125 28.203125v27.300781c0 6.527344-5.308594 11.839844-11.835937 11.839844-6.527344 0-11.835938-5.3125-11.835938-11.839844v-9.753906c0-19.085938-15.527344-34.613281-34.613281-34.613281-19.085938 0-34.609375 15.527343-34.609375 34.613281v50.59375c0 8.820312-7.179688 16-16 16-8.824219 0-16-7.179688-16-16v-111.976562c.234375.019531.472656.035156.714844.050781h.035156c.101562.007812.203125.015625.304687.019531.027344 0 .050781.003906.078125.003906.089844.003906.179688.007813.269532.011719.03125 0 .066406.003906.097656.003906.085937.003907.167968.003907.25.007813.039062 0 .078125.003906.113281.003906.082031.003906.160156.003906.238281.007812.042969 0 .082032 0 .125.003907.078125 0 .15625 0 .234375.003906h.125c.117188 0 .234375.003906.351563.003906h199.0625zm94.316406-23.410156h-293.378906c-.097656 0-.195313 0-.292969-.003906-.035156 0-.074219 0-.109375 0-.058594-.003907-.117188-.003907-.179688-.007813-.042968 0-.089843 0-.132812-.003906-.050781-.003906-.101562-.003906-.152344-.007812-.050781-.003907-.101562-.003907-.152344-.007813-.039062-.003906-.078124-.003906-.117187-.007813-.0625-.003906-.121094-.007812-.179687-.011718-.027344-.003906-.050782-.003906-.074219-.007813-.328125-.027343-.652344-.0625-.976563-.105469-.011718-.003906-.023437-.003906-.039062-.007812-.070313-.007812-.144532-.019531-.21875-.03125-.019532-.003906-.039063-.007812-.058594-.011719-.070312-.011719-.140625-.019531-.210938-.03125-.023437-.003906-.046874-.007812-.070312-.011719-.066406-.015624-.132812-.027343-.203125-.039062-.023437-.003906-.046875-.007812-.070313-.015625-.066406-.011719-.132812-.023437-.199218-.039063-.085938-.015624-.175782-.035156-.265625-.054687-.015625-.003906-.035157-.007813-.050781-.011719-.082032-.019531-.164063-.035156-.242188-.054687-.015625-.003907-.027344-.007813-.042969-.011719-.089843-.019531-.175781-.042969-.265625-.066406 0 0 0 0-.003906 0-4.953125-1.289063-9.179688-4.757813-11.347656-9.550782-4.828125-10.667968-7.300782-22.101562-7.425782-33.558593h100.644532c5.519531 0 10-4.476563 10-10 0-5.523438-4.480469-10-10-10h-98.445313c1.230469-5.242188 2.96875-10.394531 5.226563-15.378907 2.773437-6.136718 8.921875-10.101562 15.65625-10.101562h293.378906c6.734375 0 12.878906 3.964844 15.65625 10.101562 9.910156 21.90625 9.910156 47.03125 0 68.9375-2.777344 6.136719-8.921875 10.101563-15.65625 10.101563zm49.085938-36.75h-6.285157c.398438-5.207031.398438-10.429687 0-15.636719h6.285157c4.3125 0 7.816406 3.503906 7.816406 7.816406s-3.503906 7.820313-7.816406 7.820313zm-167.128907 265.417969h-16.878906v-22.996094h16.878906zm12.28125 133.472656c0 11.421875-9.296875 20.71875-20.71875 20.71875-11.425781 0-20.722656-9.292969-20.722656-20.71875v-113.472656h41.441406zm0 0"/><path xmlns="http://www.w3.org/2000/svg" d="m160.675781 45.480469h-.023437c-5.523438 0-9.988282 4.476562-9.988282 10 0 5.523437 4.488282 10 10.011719 10 5.523438 0 10-4.476563 10-10 0-5.523438-4.476562-10-10-10zm0 0"/>
		</g>
		<g id="img-calendar">
			<path xmlns="http://www.w3.org/2000/svg" d="M30.224,3.948h-1.098V2.75c0-1.517-1.197-2.75-2.67-2.75c-1.474,0-2.67,1.233-2.67,2.75v1.197h-2.74V2.75 c0-1.517-1.197-2.75-2.67-2.75c-1.473,0-2.67,1.233-2.67,2.75v1.197h-2.74V2.75c0-1.517-1.197-2.75-2.67-2.75 c-1.473,0-2.67,1.233-2.67,2.75v1.197H6.224c-2.343,0-4.25,1.907-4.25,4.25v24c0,2.343,1.907,4.25,4.25,4.25h24 c2.344,0,4.25-1.907,4.25-4.25v-24C34.474,5.855,32.567,3.948,30.224,3.948z M25.286,2.75c0-0.689,0.525-1.25,1.17-1.25 c0.646,0,1.17,0.561,1.17,1.25v4.896c0,0.689-0.524,1.25-1.17,1.25c-0.645,0-1.17-0.561-1.17-1.25V2.75z M17.206,2.75 c0-0.689,0.525-1.25,1.17-1.25s1.17,0.561,1.17,1.25v4.896c0,0.689-0.525,1.25-1.17,1.25s-1.17-0.561-1.17-1.25V2.75z M9.125,2.75 c0-0.689,0.525-1.25,1.17-1.25s1.17,0.561,1.17,1.25v4.896c0,0.689-0.525,1.25-1.17,1.25s-1.17-0.561-1.17-1.25V2.75z M31.974,32.198c0,0.965-0.785,1.75-1.75,1.75h-24c-0.965,0-1.75-0.785-1.75-1.75v-22h27.5V32.198z"/><path xmlns="http://www.w3.org/2000/svg" d="M6.724 14.626H11.318999999999999V18.715H6.724z"/><path xmlns="http://www.w3.org/2000/svg" d="M12.857 14.626H17.453V18.715H12.857z"/><path xmlns="http://www.w3.org/2000/svg" d="M18.995 14.626H23.59V18.715H18.995z"/><path xmlns="http://www.w3.org/2000/svg" d="M25.128 14.626H29.724V18.715H25.128z"/><path xmlns="http://www.w3.org/2000/svg" d="M6.724 20.084H11.318999999999999V24.17H6.724z"/><path xmlns="http://www.w3.org/2000/svg" d="M12.857 20.084H17.453V24.17H12.857z"/><path xmlns="http://www.w3.org/2000/svg" d="M18.995 20.084H23.59V24.17H18.995z"/><path xmlns="http://www.w3.org/2000/svg" d="M25.128 20.084H29.724V24.17H25.128z"/><path xmlns="http://www.w3.org/2000/svg" d="M6.724 25.54H11.318999999999999V29.625999999999998H6.724z"/><path xmlns="http://www.w3.org/2000/svg" d="M12.857 25.54H17.453V29.625999999999998H12.857z"/><path xmlns="http://www.w3.org/2000/svg" d="M18.995 25.54H23.59V29.625999999999998H18.995z"/><path xmlns="http://www.w3.org/2000/svg" d="M25.128 25.54H29.724V29.625999999999998H25.128z"/>
		</g>
		<g id="img-cargo">
			<path xmlns="http://www.w3.org/2000/svg" d="M476.158,231.363l-13.259-53.035c3.625-0.77,6.345-3.986,6.345-7.839v-8.551c0-18.566-15.105-33.67-33.67-33.67h-60.392 V110.63c0-9.136-7.432-16.568-16.568-16.568H50.772c-9.136,0-16.568,7.432-16.568,16.568V256c0,4.427,3.589,8.017,8.017,8.017 c4.427,0,8.017-3.589,8.017-8.017V110.63c0-0.295,0.239-0.534,0.534-0.534h307.841c0.295,0,0.534,0.239,0.534,0.534v145.372 c0,4.427,3.589,8.017,8.017,8.017c4.427,0,8.017-3.589,8.017-8.017v-9.088h94.569c0.008,0,0.014,0.002,0.021,0.002 c0.008,0,0.015-0.001,0.022-0.001c11.637,0.008,21.518,7.646,24.912,18.171h-24.928c-4.427,0-8.017,3.589-8.017,8.017v17.102 c0,13.851,11.268,25.119,25.119,25.119h9.086v35.273h-20.962c-6.886-19.883-25.787-34.205-47.982-34.205 s-41.097,14.322-47.982,34.205h-3.86v-60.393c0-4.427-3.589-8.017-8.017-8.017c-4.427,0-8.017,3.589-8.017,8.017v60.391H192.817 c-6.886-19.883-25.787-34.205-47.982-34.205s-41.097,14.322-47.982,34.205H50.772c-0.295,0-0.534-0.239-0.534-0.534v-17.637 h34.739c4.427,0,8.017-3.589,8.017-8.017s-3.589-8.017-8.017-8.017H8.017c-4.427,0-8.017,3.589-8.017,8.017 s3.589,8.017,8.017,8.017h26.188v17.637c0,9.136,7.432,16.568,16.568,16.568h43.304c-0.002,0.178-0.014,0.355-0.014,0.534 c0,27.996,22.777,50.772,50.772,50.772s50.772-22.776,50.772-50.772c0-0.18-0.012-0.356-0.014-0.534h180.67 c-0.002,0.178-0.014,0.355-0.014,0.534c0,27.996,22.777,50.772,50.772,50.772c27.995,0,50.772-22.776,50.772-50.772 c0-0.18-0.012-0.356-0.014-0.534h26.203c4.427,0,8.017-3.589,8.017-8.017v-85.511C512,251.989,496.423,234.448,476.158,231.363z M375.182,144.301h60.392c9.725,0,17.637,7.912,17.637,17.637v0.534h-78.029V144.301z M375.182,230.881v-52.376h71.235 l13.094,52.376H375.182z M144.835,401.904c-19.155,0-34.739-15.583-34.739-34.739s15.584-34.739,34.739-34.739 c19.155,0,34.739,15.583,34.739,34.739S163.99,401.904,144.835,401.904z M427.023,401.904c-19.155,0-34.739-15.583-34.739-34.739 s15.584-34.739,34.739-34.739c19.155,0,34.739,15.583,34.739,34.739S446.178,401.904,427.023,401.904z M495.967,299.29h-9.086 c-5.01,0-9.086-4.076-9.086-9.086v-9.086h18.171V299.29z"/><path xmlns="http://www.w3.org/2000/svg" d="M144.835,350.597c-9.136,0-16.568,7.432-16.568,16.568c0,9.136,7.432,16.568,16.568,16.568 c9.136,0,16.568-7.432,16.568-16.568C161.403,358.029,153.971,350.597,144.835,350.597z"/><path xmlns="http://www.w3.org/2000/svg" d="M427.023,350.597c-9.136,0-16.568,7.432-16.568,16.568c0,9.136,7.432,16.568,16.568,16.568 c9.136,0,16.568-7.432,16.568-16.568C443.591,358.029,436.159,350.597,427.023,350.597z"/><path xmlns="http://www.w3.org/2000/svg" d="M332.96,316.393H213.244c-4.427,0-8.017,3.589-8.017,8.017s3.589,8.017,8.017,8.017H332.96 c4.427,0,8.017-3.589,8.017-8.017S337.388,316.393,332.96,316.393z"/><path xmlns="http://www.w3.org/2000/svg" d="M127.733,282.188H25.119c-4.427,0-8.017,3.589-8.017,8.017s3.589,8.017,8.017,8.017h102.614 c4.427,0,8.017-3.589,8.017-8.017S132.16,282.188,127.733,282.188z"/><path xmlns="http://www.w3.org/2000/svg" d="M278.771,173.37c-3.13-3.13-8.207-3.13-11.337,0.001l-71.292,71.291l-37.087-37.087c-3.131-3.131-8.207-3.131-11.337,0 c-3.131,3.131-3.131,8.206,0,11.337l42.756,42.756c1.565,1.566,3.617,2.348,5.668,2.348s4.104-0.782,5.668-2.348l76.96-76.96 C281.901,181.576,281.901,176.501,278.771,173.37z"/>
		</g>
		<g id="img-facebook">
			<circle xmlns="http://www.w3.org/2000/svg" cx="56.098" cy="56.098" r="56.098" fill="#3B5998"/><path xmlns="http://www.w3.org/2000/svg" fill="#FFFFFF" d="M70.201,58.294h-10.01v36.672H45.025V58.294h-7.213V45.406h7.213v-8.34 c0-5.964,2.833-15.303,15.301-15.303L71.56,21.81v12.51h-8.151c-1.337,0-3.217,0.668-3.217,3.513v7.585h11.334L70.201,58.294z"/>
		</g>
		<g id="img-facebook-new">
			<path xmlns="http://www.w3.org/2000/svg" fill="#3b5999" d="m21 0h-18c-1.655 0-3 1.345-3 3v18c0 1.654 1.345 3 3 3h18c1.654 0 3-1.346 3-3v-18c0-1.655-1.346-3-3-3z"/><path xmlns="http://www.w3.org/2000/svg" fill="#fff" d="m16.5 12v-3c0-.828.672-.75 1.5-.75h1.5v-3.75h-3c-2.486 0-4.5 2.014-4.5 4.5v3h-3v3.75h3v8.25h4.5v-8.25h2.25l1.5-3.75z"/>
		</g>
		<g id="img-fence">
			<path xmlns="http://www.w3.org/2000/svg" d="M496.513,53.736h-23.146c-8.54,0-15.487,6.947-15.487,15.487v21.582H54.119V69.223c0-8.54-6.947-15.487-15.486-15.487 H15.486C6.947,53.736,0,60.683,0,69.223v279.091v102.45c0,4.142,3.358,7.5,7.5,7.5h497c4.142,0,7.5-3.358,7.5-7.5V69.223 C512,60.683,505.052,53.736,496.513,53.736z M472.88,69.223c0-0.269,0.219-0.487,0.487-0.487h23.146 c0.269,0,0.487,0.218,0.487,0.487v263.074c-0.022-0.005-0.045-0.01-0.067-0.015c-0.038-0.009-0.076-0.016-0.114-0.025 c-7.889-1.793-15.9-3.026-23.939-3.906V69.223z M54.119,105.805H457.88v22.247H54.119V105.805z M350.661,313.276l-19.715-19.716 l19.715-19.714l19.715,19.715L350.661,313.276z M351.042,334.869c-0.311,0.056-0.621,0.114-0.932,0.17l0.551-0.551 L351.042,334.869z M168.734,313.274L149.02,293.56l19.714-19.715l19.715,19.715L168.734,313.274z M170.508,336.261 c-1.015-0.157-2.049-0.31-3.085-0.463l1.311-1.311L170.508,336.261z M58.056,263.239l19.714-19.714l19.715,19.715L77.77,282.954 L58.056,263.239z M67.165,293.56L54.12,306.605v-26.091L67.165,293.56z M127.807,232.918l-19.715,19.715l-19.715-19.715 l19.715-19.715L127.807,232.918z M118.698,202.597l19.715-19.715l19.715,19.715l-19.715,19.715L118.698,202.597z M138.413,243.524 l19.715,19.715l-19.715,19.715l-19.715-19.715L138.413,243.524z M149.019,232.918l19.715-19.715l19.714,19.714l-19.714,19.716 L149.019,232.918z M309.733,232.917l-19.715,19.715l-19.714-19.714l19.715-19.715L309.733,232.917z M300.625,202.597 l19.715-19.715l19.714,19.715l-19.715,19.714L300.625,202.597z M259.697,222.312l-19.715-19.715l19.715-19.715l19.715,19.715 L259.697,222.312z M249.092,232.919l-19.714,19.715l-19.716-19.716l19.715-19.714L249.092,232.919z M199.055,222.311 l-19.714-19.714l19.714-19.714l19.715,19.714L199.055,222.311z M199.055,243.524l19.715,19.715l-19.715,19.715l-19.715-19.715 L199.055,243.524z M229.377,273.845l19.715,19.715l-19.715,19.715l-19.715-19.715L229.377,273.845z M239.983,263.239 l19.714-19.715l19.715,19.715l-19.715,19.714L239.983,263.239z M290.019,273.846l19.715,19.714l-19.715,19.715l-19.715-19.715 L290.019,273.846z M300.624,263.239l19.715-19.715l19.715,19.715l-19.715,19.714L300.624,263.239z M330.946,232.918l19.715-19.714 l19.714,19.714l-19.714,19.715L330.946,232.918z M361.266,202.597l19.715-19.715l19.715,19.715l-19.715,19.715L361.266,202.597z M380.981,243.524l19.715,19.715l-19.715,19.715l-19.714-19.715L380.981,243.524z M391.587,232.918l19.715-19.715l19.715,19.715 l-19.715,19.715L391.587,232.918z M391.588,172.275l19.715-19.715l19.715,19.715l-19.715,19.715L391.588,172.275z M380.982,161.67 l-18.618-18.618H399.6L380.982,161.67z M370.376,172.275l-19.715,19.715l-19.715-19.715l19.715-19.715L370.376,172.275z M320.34,161.67l-18.618-18.618h37.236L320.34,161.67z M309.734,172.275l-19.715,19.715l-19.715-19.715l19.715-19.715 L309.734,172.275z M259.697,161.67l-18.618-18.618h37.236L259.697,161.67z M249.091,172.276l-19.715,19.714l-19.715-19.714 l19.715-19.715L249.091,172.276z M199.055,161.67l-18.618-18.618h37.236L199.055,161.67z M188.448,172.276l-19.714,19.714 l-19.715-19.715l19.714-19.714L188.448,172.276z M138.413,161.67l-18.618-18.618h37.236L138.413,161.67z M127.806,172.275 l-19.714,19.715l-19.715-19.714l19.715-19.715L127.806,172.275z M77.771,161.67l-18.618-18.618h37.236L77.771,161.67z M97.486,202.597l-19.715,19.715l-19.715-19.715l19.715-19.715L97.486,202.597z M108.092,273.845l19.715,19.714l-19.715,19.715 L88.377,293.56L108.092,273.845z M138.414,304.166l19.715,19.715l-9.577,9.577c-6.959-0.706-14.28-1.278-21.949-1.673 l-7.904-7.904L138.414,304.166z M199.056,304.167l19.714,19.715l-18.236,18.236c-1.263-0.299-2.545-0.595-3.845-0.889 l-17.348-17.348L199.056,304.167z M229.376,334.488l19.715,19.715l-2.365,2.366c-7.042-2.859-16.909-6.459-29.379-10.051 L229.376,334.488z M239.982,323.881l19.715-19.715l19.715,19.715l-19.715,19.715L239.982,323.881z M290.018,334.487l11.65,11.65 c-10.228,2.826-20.3,5.924-30.154,9.276l-1.211-1.211L290.018,334.487z M300.625,323.881l19.715-19.715l19.715,19.715 l-16.738,16.738c-1.606,0.376-3.209,0.757-4.808,1.146L300.625,323.881z M380.982,304.166l19.715,19.715l-4.768,4.768 c-8.736,0.828-17.642,1.898-26.67,3.224l-7.992-7.992L380.982,304.166z M391.588,293.56l19.715-19.715l19.715,19.715 l-19.715,19.715L391.588,293.56z M441.624,304.166l16.256,16.256v6.705c-10.437-0.592-21.51-0.702-33.056-0.331l-2.915-2.915 L441.624,304.166z M452.23,293.559l5.65-5.649v11.299L452.23,293.559z M441.624,282.953l-19.715-19.714l19.715-19.715 l16.256,16.256v6.917L441.624,282.953z M452.23,232.917l5.65-5.649v11.299L452.23,232.917z M441.624,222.311l-19.715-19.715 l19.715-19.715l16.256,16.257v6.917L441.624,222.311z M452.23,172.276l5.65-5.65v11.3L452.23,172.276z M441.624,161.669 l-18.618-18.618h34.874v2.362L441.624,161.669z M54.119,159.23l13.045,13.045l-13.045,13.046V159.23z M54.119,219.873 l13.045,13.045l-13.045,13.045V219.873z M77.771,304.166l19.715,19.715l-7.477,7.477c-11.426,0.314-23.406,1.062-35.889,2.337 v-5.877h-0.001L77.771,304.166z M15,69.223c0-0.269,0.218-0.487,0.486-0.487h23.146c0.268,0,0.486,0.218,0.486,0.487v266.218 h0.001c-8.067,1.08-16.112,2.348-24.119,3.805V69.223z M497.001,443.267H146.15v-0.003c6.522-6.235,13.423-12.068,20.588-17.549 c6.613-5.058,13.457-9.826,20.475-14.306c3.491-2.229,4.514-6.866,2.285-10.357c-2.2-3.446-6.915-4.494-10.365-2.292 c-7.841,5.007-15.257,10.216-22.245,15.599c-11.222,8.644-21.898,18.119-31.45,28.593c-0.096,0.104-0.196,0.208-0.291,0.312H15 v-88.742c0.787-0.148,1.571-0.305,2.359-0.448c9.05-1.652,18.338-3.081,27.542-4.237c60.485-7.552,109.438-2.102,141.765,4.569 c21.795,4.497,38.706,10.035,49.927,14.319c-10.14,4.336-20.145,9.037-29.92,14.145c-3.672,1.917-5.094,6.448-3.177,10.12 c1.892,3.623,6.495,5.078,10.125,3.181c4.451-2.325,8.95-4.558,13.487-6.708c42.567-20.19,93.197-35.232,144.303-42.743 c33.92-4.985,65.94-6.352,92.709-4.165c0.208,0.035,0.419,0.066,0.633,0.084c12.073,1.013,22.876,2.731,32.248,5.099V443.267z"/>
		</g>
		<g id="img-instagram">
			<linearGradient xmlns="http://www.w3.org/2000/svg" id="a" x1="-37.106" x2="-26.555" y1="-72.705" y2="-84.047" gradientTransform="matrix(0 -1.982 -1.844 0 -132.522 -51.077)" gradientUnits="userSpaceOnUse"><stop offset="0" stop-color="#fd5"/><stop offset=".5" stop-color="#ff543e"/><stop offset="1" stop-color="#c837ab"/></linearGradient><path xmlns="http://www.w3.org/2000/svg" fill="url(#a)" d="m1.5 1.633c-1.886 1.959-1.5 4.04-1.5 10.362 0 5.25-.916 10.513 3.878 11.752 1.497.385 14.761.385 16.256-.002 1.996-.515 3.62-2.134 3.842-4.957.031-.394.031-13.185-.001-13.587-.236-3.007-2.087-4.74-4.526-5.091-.559-.081-.671-.105-3.539-.11-10.173.005-12.403-.448-14.41 1.633z"/><path xmlns="http://www.w3.org/2000/svg" fill="#fff" d="m11.998 3.139c-3.631 0-7.079-.323-8.396 3.057-.544 1.396-.465 3.209-.465 5.805 0 2.278-.073 4.419.465 5.804 1.314 3.382 4.79 3.058 8.394 3.058 3.477 0 7.062.362 8.395-3.058.545-1.41.465-3.196.465-5.804 0-3.462.191-5.697-1.488-7.375-1.7-1.7-3.999-1.487-7.374-1.487zm-.794 1.597c7.574-.012 8.538-.854 8.006 10.843-.189 4.137-3.339 3.683-7.211 3.683-7.06 0-7.263-.202-7.263-7.265 0-7.145.56-7.257 6.468-7.263zm5.524 1.471c-.587 0-1.063.476-1.063 1.063s.476 1.063 1.063 1.063 1.063-.476 1.063-1.063-.476-1.063-1.063-1.063zm-4.73 1.243c-2.513 0-4.55 2.038-4.55 4.551s2.037 4.55 4.55 4.55 4.549-2.037 4.549-4.55-2.036-4.551-4.549-4.551zm0 1.597c3.905 0 3.91 5.908 0 5.908-3.904 0-3.91-5.908 0-5.908z"/>
		</g>
		<g id="img-location">
			<path xmlns="http://www.w3.org/2000/svg" d="M256,0C153.755,0,70.573,83.182,70.573,185.426c0,126.888,165.939,313.167,173.004,321.035 c6.636,7.391,18.222,7.378,24.846,0c7.065-7.868,173.004-194.147,173.004-321.035C441.425,83.182,358.244,0,256,0z M256,469.729 c-55.847-66.338-152.035-197.217-152.035-284.301c0-83.834,68.202-152.036,152.035-152.036s152.035,68.202,152.035,152.035 C408.034,272.515,311.861,403.37,256,469.729z"/><path xmlns="http://www.w3.org/2000/svg" d="M256,92.134c-51.442,0-93.292,41.851-93.292,93.293s41.851,93.293,93.292,93.293s93.291-41.851,93.291-93.293 S307.441,92.134,256,92.134z M256,245.328c-33.03,0-59.9-26.871-59.9-59.901s26.871-59.901,59.9-59.901s59.9,26.871,59.9,59.901 S289.029,245.328,256,245.328z"/>
		</g>
		<g id="img-mail">
			<path xmlns="http://www.w3.org/2000/svg" d="M424.3,57.75H59.1c-32.6,0-59.1,26.5-59.1,59.1v249.6c0,32.6,26.5,59.1,59.1,59.1h365.1c32.6,0,59.1-26.5,59.1-59.1 v-249.5C483.4,84.35,456.9,57.75,424.3,57.75z M456.4,366.45c0,17.7-14.4,32.1-32.1,32.1H59.1c-17.7,0-32.1-14.4-32.1-32.1v-249.5 c0-17.7,14.4-32.1,32.1-32.1h365.1c17.7,0,32.1,14.4,32.1,32.1v249.5H456.4z"/><path xmlns="http://www.w3.org/2000/svg" d="M304.8,238.55l118.2-106c5.5-5,6-13.5,1-19.1c-5-5.5-13.5-6-19.1-1l-163,146.3l-31.8-28.4c-0.1-0.1-0.2-0.2-0.2-0.3 c-0.7-0.7-1.4-1.3-2.2-1.9L78.3,112.35c-5.6-5-14.1-4.5-19.1,1.1c-5,5.6-4.5,14.1,1.1,19.1l119.6,106.9L60.8,350.95 c-5.4,5.1-5.7,13.6-0.6,19.1c2.7,2.8,6.3,4.3,9.9,4.3c3.3,0,6.6-1.2,9.2-3.6l120.9-113.1l32.8,29.3c2.6,2.3,5.8,3.4,9,3.4 c3.2,0,6.5-1.2,9-3.5l33.7-30.2l120.2,114.2c2.6,2.5,6,3.7,9.3,3.7c3.6,0,7.1-1.4,9.8-4.2c5.1-5.4,4.9-14-0.5-19.1L304.8,238.55z"/>
		</g>
		<g id="img-measure">
			<path xmlns="http://www.w3.org/2000/svg" d="M 186.742188 198.046875 C 231.867188 198.046875 268.667969 170.335938 268.667969 136.386719 C 268.667969 102.433594 231.976562 74.722656 186.742188 74.722656 C 141.507812 74.722656 104.816406 102.433594 104.816406 136.386719 C 104.816406 170.335938 141.617188 198.046875 186.742188 198.046875 Z M 186.742188 96.625 C 219.597656 96.625 246.761719 114.808594 246.761719 136.382812 C 246.761719 157.960938 219.269531 176.140625 186.742188 176.140625 C 154.210938 176.140625 126.71875 157.960938 126.71875 136.382812 C 126.71875 114.808594 154.210938 96.515625 186.742188 96.515625 Z M 186.742188 96.625"/><path xmlns="http://www.w3.org/2000/svg" d="M 534.046875 250.292969 L 372.386719 250.292969 L 372.386719 136.273438 C 372.386719 61.359375 289.039062 0.355469 186.195312 0.355469 C 83.347656 0.355469 0 61.359375 0 136.273438 L 0 270.992188 C 0 339.992188 70.644531 396.945312 161.660156 405.597656 L 163.523438 405.597656 C 171.078125 406.257812 178.746094 406.804688 186.523438 406.804688 L 534.046875 406.804688 C 540.09375 406.804688 545 401.898438 545 395.851562 L 545 261.242188 C 545 255.199219 540.09375 250.292969 534.046875 250.292969 Z M 186.742188 22.367188 C 277.097656 22.367188 351.03125 73.515625 351.03125 136.386719 C 351.03125 199.253906 277.539062 250.402344 186.742188 250.402344 C 95.945312 250.402344 22.453125 199.253906 22.453125 136.382812 C 22.453125 73.515625 96.492188 22.367188 186.742188 22.367188 Z M 351.03125 200.238281 L 351.03125 250.292969 L 287.503906 250.292969 C 312.300781 239.054688 333.933594 221.859375 350.480469 200.238281 Z M 523.09375 384.898438 L 501.1875 384.898438 L 501.1875 329.476562 C 501.1875 323.433594 496.28125 318.523438 490.238281 318.523438 C 484.191406 318.523438 479.285156 323.429688 479.285156 329.476562 L 479.285156 385.007812 L 435.472656 385.007812 L 435.472656 354.886719 C 435.472656 348.839844 430.566406 343.933594 424.519531 343.933594 C 418.472656 343.933594 413.566406 348.839844 413.566406 354.886719 L 413.566406 385.007812 L 369.757812 385.007812 L 369.757812 354.886719 C 369.757812 348.839844 364.851562 343.933594 358.804688 343.933594 C 352.757812 343.933594 347.851562 348.839844 347.851562 354.886719 L 347.851562 385.007812 L 304.039062 385.007812 L 304.039062 329.476562 C 304.039062 323.433594 299.132812 318.523438 293.085938 318.523438 C 287.042969 318.523438 282.132812 323.429688 282.132812 329.476562 L 282.132812 385.007812 L 240.1875 385.007812 L 240.1875 354.886719 C 240.1875 348.839844 235.277344 343.933594 229.234375 343.933594 C 223.1875 343.933594 218.28125 348.839844 218.28125 354.886719 L 218.28125 385.007812 L 186.734375 385.007812 C 182.574219 385.007812 178.523438 385.007812 174.46875 385.007812 L 174.46875 354.886719 C 174.46875 348.839844 169.5625 343.933594 163.515625 343.933594 C 157.46875 343.933594 152.5625 348.839844 152.5625 354.886719 L 152.5625 382.378906 C 78.640625 371.425781 23 325.644531 23 270.882812 L 23 200.238281 C 54.324219 243.0625 115.988281 272.195312 187.289062 272.195312 L 523.09375 272.195312 Z M 523.09375 384.898438"/>
		</g>
		<g id="img-phone">
			<path xmlns="http://www.w3.org/2000/svg" d="M29.33,19.339c-2.326-0.545-5.3-1.969-6.377-3.737c-0.603-0.984-0.666-2.094-0.179-3.042 c0.027-0.051,0.074-0.128,0.109-0.188c-0.028-0.209,0.021-0.486,0.172-0.847c0.011-0.024,0.012-0.027,0.02-0.044H11.122 c0.006,0.014,0.006,0.014,0.014,0.032c0,0,0.001,0.001,0.001,0.002c0.268,0.418,0.502,0.792,0.627,1.033 c0.495,0.961,0.431,2.07-0.17,3.055c-1.08,1.77-4.053,3.193-6.381,3.738L4.57,30.124c-0.07,1.183,0.705,2.149,1.723,2.149h21.958 c1.018,0,1.792-0.967,1.721-2.149L29.33,19.339z M13.683,26.765h-2.062c-0.38,0-0.688-0.309-0.688-0.688s0.308-0.688,0.688-0.688 h2.062c0.379,0,0.688,0.309,0.688,0.688S14.062,26.765,13.683,26.765z M13.683,24.143h-2.062c-0.38,0-0.688-0.308-0.688-0.687 c0-0.382,0.308-0.688,0.688-0.688h2.062c0.379,0,0.688,0.306,0.688,0.688C14.371,23.835,14.062,24.143,13.683,24.143z M13.683,21.521h-2.062c-0.38,0-0.688-0.308-0.688-0.688c0-0.379,0.308-0.688,0.688-0.688h2.062c0.379,0,0.688,0.309,0.688,0.688 S14.062,21.521,13.683,21.521z M18.304,26.765h-2.061c-0.38,0-0.688-0.309-0.688-0.688s0.309-0.688,0.688-0.688h2.062 c0.379,0,0.688,0.309,0.688,0.688C18.991,26.456,18.683,26.765,18.304,26.765z M18.304,24.143h-2.061 c-0.38,0-0.688-0.308-0.688-0.687c0-0.382,0.309-0.688,0.688-0.688h2.062c0.379,0,0.688,0.306,0.688,0.688 C18.991,23.835,18.683,24.143,18.304,24.143z M18.304,21.521h-2.061c-0.38,0-0.688-0.308-0.688-0.688 c0-0.379,0.309-0.688,0.688-0.688h2.062c0.379,0,0.688,0.309,0.688,0.688C18.991,21.212,18.683,21.521,18.304,21.521z M22.924,26.765h-2.062c-0.379,0-0.687-0.309-0.687-0.688s0.308-0.688,0.687-0.688h2.062c0.381,0,0.688,0.309,0.688,0.688 C23.612,26.456,23.306,26.765,22.924,26.765z M22.924,24.143h-2.062c-0.379,0-0.687-0.308-0.687-0.687 c0-0.382,0.308-0.688,0.687-0.688h2.062c0.381,0,0.688,0.306,0.688,0.688C23.612,23.835,23.306,24.143,22.924,24.143z M22.924,21.521h-2.062c-0.379,0-0.687-0.308-0.687-0.688c0-0.379,0.308-0.688,0.687-0.688h2.062c0.381,0,0.688,0.309,0.688,0.688 C23.612,21.212,23.306,21.521,22.924,21.521z M34.372,13.114c-0.043,0.216-0.045,0.441-0.13,0.646 c-0.497,1.202-1.429,2.197-2.115,3.305c-0.885,1.414-8.406-1.634-7.437-3.521c0.365-0.698,1.789-2.626,1.896-3.401 c0.098-0.692-0.818-1.233-1.664-1.302c-2.232-0.181-5.083-0.017-7.452-0.002v0.002c-0.063,0-0.133-0.001-0.198-0.001 c-0.064,0-0.134,0.001-0.197,0.001V8.839c-2.369-0.015-5.22-0.178-7.452,0.002c-0.846,0.069-1.762,0.61-1.665,1.302 c0.108,0.775,1.531,2.703,1.896,3.401c0.971,1.887-6.55,4.935-7.435,3.521c-0.688-1.108-1.618-2.103-2.116-3.305 c-0.084-0.205-0.086-0.43-0.129-0.646c-1.104-4.93,3.148-9.96,9.551-10.476c2.445-0.198,4.896-0.31,7.35-0.354V2.272 c0.066,0.001,0.131,0.005,0.197,0.006c0.065-0.001,0.131-0.005,0.198-0.006v0.012c2.452,0.044,4.903,0.156,7.35,0.354 C31.222,3.153,35.474,8.185,34.372,13.114z"/>
		</g>
		<g id="img-phone-blue">
			<circle xmlns="http://www.w3.org/2000/svg" cx="32" cy="32" r="32" fill="#77B3D4" class="st0"/><g xmlns="http://www.w3.org/2000/svg" class="st1"><path fill="#231F20" d="M29,25.3c-0.4-4.8-5.4-7.1-5.6-7.2C23.1,18,22.9,18,22.7,18c-5.8,1-6.6,4.3-6.7,4.5c0,0.2,0,0.4,0,0.6 c6.9,21.4,21.2,25.3,25.9,26.6c0.4,0.1,0.7,0.2,0.9,0.3c0.1,0,0.2,0.1,0.3,0.1c0.2,0,0.3,0,0.5-0.1c0.1-0.1,3.5-1.7,4.4-6.9 c0-0.2,0-0.5-0.1-0.7c-0.1-0.1-1.9-3.5-6.8-4.7c-0.3-0.1-0.7,0-1,0.2c-1.6,1.3-3.7,2.7-4.6,2.9c-6.2-3-9.7-8.9-9.8-10 c-0.1-0.6,1.3-2.8,3-4.6C28.9,26,29,25.6,29,25.3z" class="st2"/></g><path xmlns="http://www.w3.org/2000/svg" fill="#FFF" d="M29,23.3c-0.4-4.8-5.4-7.1-5.6-7.2C23.1,16,22.9,16,22.7,16c-5.8,1-6.6,4.3-6.7,4.5c0,0.2,0,0.4,0,0.6 c6.9,21.4,21.2,25.3,25.9,26.6c0.4,0.1,0.7,0.2,0.9,0.3c0.1,0,0.2,0.1,0.3,0.1c0.2,0,0.3,0,0.5-0.1c0.1-0.1,3.5-1.7,4.4-6.9 c0-0.2,0-0.5-0.1-0.7c-0.1-0.1-1.9-3.5-6.8-4.7c-0.3-0.1-0.7,0-1,0.2c-1.6,1.3-3.7,2.7-4.6,2.9c-6.2-3-9.7-8.9-9.8-10 c-0.1-0.6,1.3-2.8,3-4.6C28.9,24,29,23.6,29,23.3z" class="st3"/>
		</g>
		<g id="img-pinterest">
			<path xmlns="http://www.w3.org/2000/svg" fill="#C8232C" d="M145.659,0c80.45,0,145.66,65.219,145.66,145.66c0,80.45-65.21,145.659-145.66,145.659 S0,226.109,0,145.66C0,65.219,65.21,0,145.659,0z"/><path xmlns="http://www.w3.org/2000/svg" fill="#FFFFFF" d="M150.066,63.781c-51.327,0-77.19,35.632-77.19,65.337c0,17.989,7.028,33.993,22.122,39.956 c2.467,0.974,4.698,0.036,5.408-2.613l2.203-8.403c0.728-2.613,0.446-3.541-1.548-5.826c-4.361-4.962-7.128-11.398-7.128-20.511 c0-26.428,20.42-50.089,53.175-50.089c29.014,0,44.945,17.161,44.945,40.075c0,30.152-13.783,55.606-34.248,55.606 c-11.289,0-19.755-9.04-17.042-20.156c3.241-13.237,9.541-27.539,9.541-37.107c0-8.548-4.743-15.704-14.575-15.704 c-11.553,0-20.829,11.571-20.829,27.074c0,9.878,3.45,16.551,3.45,16.551l-13.901,56.998c-4.124,16.906-0.61,37.644-0.319,39.738 c0.182,1.238,1.821,1.529,2.567,0.601c1.065-1.347,14.821-17.798,19.5-34.239c1.329-4.652,7.602-28.75,7.602-28.75 c3.751,6.946,14.721,13.046,26.383,13.046c34.712,0,58.273-30.652,58.273-71.674C218.444,92.676,191.315,63.781,150.066,63.781z"/>
		</g>
		<g id="img-twitter">
			<linearGradient xmlns="http://www.w3.org/2000/svg" id="b" x1="169.994" x2="299.493" y1="71.986" y2="349.055" gradientUnits="userSpaceOnUse"><stop offset="0" stop-color="#00c3ff"/><stop offset="1" stop-color="#00b0ed"/></linearGradient><linearGradient xmlns="http://www.w3.org/2000/svg" id="a"><stop offset="0" stop-color="#00b0ed" stop-opacity="0"/><stop offset="1" stop-color="#00a2ce"/></linearGradient><linearGradient xmlns="http://www.w3.org/2000/svg" id="c" x1="364.283" x2="-379.586" y1="314.087" y2="-84.952" gradientUnits="userSpaceOnUse" xmlns:xlink="http://www.w3.org/1999/xlink" xlink:href="#a"/><linearGradient xmlns="http://www.w3.org/2000/svg" id="d" x1="256" x2="256" y1="437.383" y2="504.472" gradientUnits="userSpaceOnUse" xmlns:xlink="http://www.w3.org/1999/xlink" xlink:href="#a"/><linearGradient xmlns="http://www.w3.org/2000/svg" id="e" x1="489.421" x2="239.294" y1="482.072" y2="231.945" gradientUnits="userSpaceOnUse" xmlns:xlink="http://www.w3.org/1999/xlink" xlink:href="#a"/><path xmlns="http://www.w3.org/2000/svg" fill="url(#b)" d="m420.421875 503.234375c-109.503906 11.6875-219.339844 11.6875-328.84375 0-43.664063-4.660156-78.152344-39.148437-82.8125-82.816406-11.6875-109.503907-11.6875-219.335938 0-328.839844 4.660156-43.664063 39.148437-78.152344 82.8125-82.8125 109.503906-11.6875 219.335937-11.6875 328.839844 0 43.667969 4.660156 78.15625 39.148437 82.816406 82.8125 11.6875 109.503906 11.6875 219.335937 0 328.839844-4.660156 43.667969-39.144531 78.15625-82.8125 82.816406zm0 0"/><path xmlns="http://www.w3.org/2000/svg" fill="url(#c)" d="m475.386719 110.097656c-4.132813-38.746094-34.734375-69.351562-73.484375-73.488281-97.171875-10.367187-194.632813-10.367187-291.804688 0-38.746094 4.136719-69.351562 34.742187-73.488281 73.488281-10.367187 97.171875-10.367187 194.632813 0 291.800782 4.136719 38.75 34.742187 69.355468 73.488281 73.488281 97.171875 10.371093 194.632813 10.371093 291.800782 0 38.75-4.132813 69.355468-34.738281 73.488281-73.488281 10.371093-97.167969 10.371093-194.628907 0-291.800782zm0 0"/><path xmlns="http://www.w3.org/2000/svg" fill="url(#d)" d="m7.671875 409.804688c.351563 3.539062.714844 7.078124 1.09375 10.617187 4.660156 43.664063 39.148437 78.152344 82.816406 82.8125 109.503907 11.6875 219.335938 11.6875 328.839844 0 43.667969-4.660156 78.152344-39.148437 82.8125-82.8125.378906-3.539063.742187-7.078125 1.097656-10.617187zm0 0"/><path xmlns="http://www.w3.org/2000/svg" fill="url(#e)" d="m511.890625 238.007812-106.277344-106.273437c-11.910156 6.808594-22.40625 10.585937-30.3125 12.679687-4.445312 1.191407-8.074219 1.839844-10.683593 2.195313-11.984376-12.285156-28.71875-19.914063-47.242188-19.914063-36.445312 0-65.996094 29.546876-65.996094 66 0 1.316407.035156 2.617188.121094 3.914063.175781 3.160156.578125 6.265625 1.199219 9.285156-15.214844-.226562-64.667969-4.289062-111.832031-44.71875-.003907 0-.003907-.003906-.003907-.003906h-.003906l-22.242187-22.246094s-26.09375 45.542969 12.269531 80.101563c1.683593 1.878906 3.535156 3.734375 5.5625 5.558594.160156.179687.328125.355468.488281.535156-5.035156-.339844-20.179688-1.847656-28.945312-8.039063 0 0-1.761719 27.835938 21.429687 48.328125l18.726563 18.886719c-5.703126.472656-12.011719.359375-16.398438-1.5625 0 0 3.882812 16.488281 18.890625 29.683594l26.234375 26.371093c-15.738281 9.167969-43.289062 20.640626-79.554688 17.710938l159.144532 155.5c54.679687-.015625 109.359375-2.9375 163.957031-8.765625 43.667969-4.660156 78.15625-39.148437 82.816406-82.8125 6.480469-60.742187 9.359375-121.585937 8.652344-182.414063zm0 0"/><path xmlns="http://www.w3.org/2000/svg" fill="#fff" d="m414.683594 157.367188c-11.328125 5.925781-28.390625 8.664062-34.046875 9.453124-.046875-.273437-.09375-.535156-.140625-.796874 19.230468-11.894532 25.117187-34.289063 25.117187-34.289063-11.910156 6.808594-22.40625 10.585937-30.3125 12.679687-4.445312 1.191407-8.074219 1.835938-10.683593 2.195313-11.984376-12.289063-28.71875-19.914063-47.242188-19.914063-36.445312 0-65.996094 29.542969-65.996094 66 0 1.3125.035156 2.617188.121094 3.910157.175781 3.160156.578125 6.265625 1.199219 9.285156-17.640625-.261719-81.316407-5.671875-134.082031-66.964844 0 0-29.382813 51.265625 20.015624 86.285157 0 0-20.015624-.625-30.640624-8.128907 0 0-3.125 49.398438 53.769531 65.023438 0 0-20.003907 5.007812-30.015625.628906 0 0 10.007812 42.515625 60.027344 45.648437 0 0-35.875 32.84375-94.457032 28.117188 28.8125 18.242188 62.972656 28.800781 99.597656 28.800781 102.980469 0 186.464844-83.480469 186.464844-186.460937 0-1.285156-.011718-2.570313-.039062-3.855469.027344-.761719.039062-1.519531.039062-2.289063 0-.535156-.011718-1.070312-.019531-1.605468 19.039063-12.6875 31.324219-33.722656 31.324219-33.722656zm0 0"/>
		</g>
		<g id="img-youtube">
			<path xmlns="http://www.w3.org/2000/svg" fill="#f00" d="m501.453125 56.09375c-5.902344-21.933594-23.195313-39.222656-45.125-45.128906-40.066406-10.964844-200.332031-10.964844-200.332031-10.964844s-160.261719 0-200.328125 10.546875c-21.507813 5.902344-39.222657 23.617187-45.125 45.546875-10.542969 40.0625-10.542969 123.148438-10.542969 123.148438s0 83.503906 10.542969 123.148437c5.90625 21.929687 23.195312 39.222656 45.128906 45.128906 40.484375 10.964844 200.328125 10.964844 200.328125 10.964844s160.261719 0 200.328125-10.546875c21.933594-5.902344 39.222656-23.195312 45.128906-45.125 10.542969-40.066406 10.542969-123.148438 10.542969-123.148438s.421875-83.507812-10.546875-123.570312zm0 0"/><path xmlns="http://www.w3.org/2000/svg" fill="#fff" d="m204.96875 256 133.269531-76.757812-133.269531-76.757813zm0 0"/>
		</g>
		<g id="img-zoom">
			<path xmlns="http://www.w3.org/2000/svg" d="M506.144,451.421L351.374,296.652c-3.751-3.751-8.837-5.858-14.142-5.858c-4.854,0-9.511,1.781-13.144,4.954 l-21.837-21.837c52.173-65.998,48.375-162.673-13.313-224.362c0,0,0,0-0.001,0c-65.983-65.983-173.346-65.985-239.332,0 c-66.134,66.135-66.144,173.187,0,239.332c60.814,60.813,157.546,65.972,224.351,13.301l21.851,21.851 c-6.872,7.855-6.586,19.795,0.903,27.283l154.77,154.77c7.805,7.805,20.474,7.808,28.283,0l13.188-13.188 c0.001-0.001,0.002-0.002,0.002-0.002s0.001-0.002,0.002-0.003l13.188-13.188C513.953,471.894,513.953,459.232,506.144,451.421z M260.655,260.597c-50.505,50.505-132.254,50.511-182.766,0c-50.504-50.502-50.513-132.255,0-182.767 c50.387-50.387,132.376-50.39,182.766,0C311.159,128.333,311.169,210.086,260.655,260.597z"/>
		</g>
	</defs>
</svg>
