<svg width="0" height="0" class="hidden">
  <symbol xmlns="http://www.w3.org/2000/svg" viewBox="0 0 112.196 112.196" id="facebook">
    <circle cx="56.098" cy="56.098" r="56.098" fill="#3b5998"></circle>
    <path d="M70.201 58.294h-10.01v36.672H45.025V58.294h-7.213V45.406h7.213v-8.34c0-5.964 2.833-15.303 15.301-15.303l11.234.047v12.51h-8.151c-1.337 0-3.217.668-3.217 3.513v7.585h11.334l-1.325 12.876z" fill="#fff"></path>
  </symbol>

  <symbol viewBox="0 0 24 24" xmlns="http://www.w3.org/2000/svg" id="facebook_new">
    <path d="M21 0H3C1.345 0 0 1.345 0 3v18c0 1.654 1.345 3 3 3h18c1.654 0 3-1.346 3-3V3c0-1.655-1.346-3-3-3z" fill="#3b5999"></path>
    <path d="M16.5 12V9c0-.828.672-.75 1.5-.75h1.5V4.5h-3A4.5 4.5 0 0 0 12 9v3H9v3.75h3V24h4.5v-8.25h2.25l1.5-3.75z" fill="#fff"></path>
  </symbol>

  <symbol viewBox="0 0 24 24" xmlns="http://www.w3.org/2000/svg" id="instagram">
    <linearGradient id="SVGID_1_" gradientTransform="matrix(0 -1.982 -1.844 0 -132.522 -51.077)" gradientUnits="userSpaceOnUse" x1="-37.106" x2="-26.555" y1="-72.705" y2="-84.047">
      <stop offset="0" stop-color="#fd5"></stop>
      <stop offset=".5" stop-color="#ff543e"></stop>
      <stop offset="1" stop-color="#c837ab"></stop>
    </linearGradient>
    <path d="M1.5 1.633C-.386 3.592 0 5.673 0 11.995c0 5.25-.916 10.513 3.878 11.752 1.497.385 14.761.385 16.256-.002 1.996-.515 3.62-2.134 3.842-4.957.031-.394.031-13.185-.001-13.587-.236-3.007-2.087-4.74-4.526-5.091C18.89.029 18.778.005 15.91 0 5.737.005 3.507-.448 1.5 1.633z"
      fill="#f56040"></path>
    <path d="M11.998 3.139c-3.631 0-7.079-.323-8.396 3.057-.544 1.396-.465 3.209-.465 5.805 0 2.278-.073 4.419.465 5.804 1.314 3.382 4.79 3.058 8.394 3.058 3.477 0 7.062.362 8.395-3.058.545-1.41.465-3.196.465-5.804 0-3.462.191-5.697-1.488-7.375-1.7-1.7-3.999-1.487-7.374-1.487zm-.794 1.597c7.574-.012 8.538-.854 8.006 10.843-.189 4.137-3.339 3.683-7.211 3.683-7.06 0-7.263-.202-7.263-7.265 0-7.145.56-7.257 6.468-7.263zm5.524 1.471a1.063 1.063 0 1 0 0 2.126 1.063 1.063 0 0 0 0-2.126zm-4.73 1.243a4.55 4.55 0 1 0 .001 9.101 4.55 4.55 0 0 0-.001-9.101zm0 1.597c3.905 0 3.91 5.908 0 5.908-3.904 0-3.91-5.908 0-5.908z"
      fill="#fff"></path>
  </symbol>

  <symbol xmlns="http://www.w3.org/2000/svg" viewBox="0 0 291.319 291.319" id="pinterest">
    <path d="M145.659 0c80.45 0 145.66 65.219 145.66 145.66 0 80.45-65.21 145.659-145.66 145.659S0 226.109 0 145.66C0 65.219 65.21 0 145.659 0z" fill="#c8232c"></path>
    <path d="M150.066 63.781c-51.327 0-77.19 35.632-77.19 65.337 0 17.989 7.028 33.993 22.122 39.956 2.467.974 4.698.036 5.408-2.613l2.203-8.403c.728-2.613.446-3.541-1.548-5.826-4.361-4.962-7.128-11.398-7.128-20.511 0-26.428 20.42-50.089 53.175-50.089 29.014 0 44.945 17.161 44.945 40.075 0 30.152-13.783 55.606-34.248 55.606-11.289 0-19.755-9.04-17.042-20.156 3.241-13.237 9.541-27.539 9.541-37.107 0-8.548-4.743-15.704-14.575-15.704-11.553 0-20.829 11.571-20.829 27.074 0 9.878 3.45 16.551 3.45 16.551l-13.901 56.998c-4.124 16.906-.61 37.644-.319 39.738.182 1.238 1.821 1.529 2.567.601 1.065-1.347 14.821-17.798 19.5-34.239 1.329-4.652 7.602-28.75 7.602-28.75 3.751 6.946 14.721 13.046 26.383 13.046 34.712 0 58.273-30.652 58.273-71.674-.011-31.015-27.14-59.91-68.389-59.91z"
      fill="#fff"></path>
  </symbol>

  <symbol viewBox="0 0 512 512" xmlns="http://www.w3.org/2000/svg" xmlns:xlink="http://www.w3.org/1999/xlink" id="twitter">
    <linearGradient id="b" gradientUnits="userSpaceOnUse" x1="169.994" x2="299.493" y1="71.986" y2="349.055">
      <stop offset="0" stop-color="#00c3ff"></stop>
      <stop offset="1" stop-color="#00b0ed"></stop>
    </linearGradient>
    <linearGradient id="a">
      <stop offset="0" stop-color="#00b0ed" stop-opacity="0"></stop>
      <stop offset="1" stop-color="#00a2ce"></stop>
    </linearGradient>
    <linearGradient id="c" gradientUnits="userSpaceOnUse" x1="364.283" x2="-379.586" xlink:href="#a" y1="314.087" y2="-84.952"></linearGradient>
    <linearGradient id="d" gradientUnits="userSpaceOnUse" x1="256" x2="256" xlink:href="#a" y1="437.383" y2="504.472"></linearGradient>
    <linearGradient id="e" gradientUnits="userSpaceOnUse" x1="489.421" x2="239.294" xlink:href="#a" y1="482.072" y2="231.945"></linearGradient>
    <path d="M420.422 503.234c-109.504 11.688-219.34 11.688-328.844 0-43.664-4.66-78.152-39.148-82.812-82.816-11.688-109.504-11.688-219.336 0-328.84 4.66-43.664 39.148-78.152 82.812-82.812 109.504-11.688 219.336-11.688 328.84 0 43.668 4.66 78.156 39.148 82.816 82.812 11.688 109.504 11.688 219.336 0 328.84-4.66 43.668-39.144 78.156-82.812 82.816zm0 0"
      fill="#00c3ff"></path>
    <path d="M475.387 110.098c-4.133-38.746-34.735-69.352-73.485-73.489-97.172-10.367-194.632-10.367-291.804 0-38.746 4.137-69.352 34.743-73.489 73.489-10.367 97.172-10.367 194.632 0 291.8 4.137 38.75 34.743 69.356 73.489 73.489 97.172 10.37 194.632 10.37 291.8 0 38.75-4.133 69.356-34.739 73.489-73.489 10.37-97.168 10.37-194.628 0-291.8zm0 0"
      fill="#00c3ff"></path>
    <path d="M7.672 409.805c.351 3.539.715 7.078 1.094 10.617 4.66 43.664 39.148 78.152 82.816 82.812 109.504 11.688 219.336 11.688 328.84 0 43.668-4.66 78.152-39.148 82.812-82.812.38-3.54.743-7.078 1.098-10.617zm0 0" fill="#00c3ff"></path>
    <path d="M511.89 238.008L405.614 131.734c-11.91 6.809-22.406 10.586-30.312 12.68-4.446 1.191-8.074 1.84-10.684 2.195-11.984-12.285-28.719-19.914-47.242-19.914-36.445 0-65.996 29.547-65.996 66 0 1.317.035 2.618.121 3.914.176 3.16.578 6.266 1.2 9.286-15.216-.227-64.669-4.29-111.833-44.72-.004 0-.004-.003-.004-.003h-.004l-22.242-22.246s-26.094 45.543 12.27 80.101a73.208 73.208 0 0 0 5.562 5.559c.16.18.328.355.489.535-5.036-.34-20.18-1.848-28.946-8.039 0 0-1.762 27.836 21.43 48.328l18.726 18.887c-5.703.473-12.011.36-16.398-1.563 0 0 3.883 16.489 18.89 29.684l26.235 26.371c-15.738 9.168-43.29 20.64-79.555 17.711L256.465 512a1548.15 1548.15 0 0 0 163.957-8.766c43.668-4.66 78.156-39.148 82.816-82.812a1548.862 1548.862 0 0 0 8.653-182.414zm0 0"
      fill="#00c3ff"></path>
    <path d="M414.684 157.367c-11.329 5.926-28.391 8.664-34.047 9.453l-.14-.797c19.23-11.894 25.116-34.289 25.116-34.289-11.91 6.809-22.406 10.586-30.312 12.68-4.446 1.191-8.074 1.836-10.684 2.195-11.984-12.289-28.719-19.914-47.242-19.914-36.445 0-65.996 29.543-65.996 66 0 1.313.035 2.618.121 3.91.176 3.16.578 6.266 1.2 9.286-17.641-.262-81.317-5.672-134.083-66.965 0 0-29.383 51.265 20.016 86.285 0 0-20.016-.625-30.64-8.129 0 0-3.126 49.398 53.769 65.023 0 0-20.004 5.008-30.016.63 0 0 10.008 42.515 60.027 45.648 0 0-35.875 32.844-94.457 28.117 28.813 18.242 62.973 28.8 99.598 28.8 102.98 0 186.465-83.48 186.465-186.46 0-1.285-.012-2.57-.04-3.856.028-.761.04-1.52.04-2.289 0-.535-.012-1.07-.02-1.605 19.04-12.688 31.325-33.723 31.325-33.723zm0 0"
      fill="#fff"></path>
  </symbol>

  <symbol viewBox="0 -77 512.002 512" xmlns="http://www.w3.org/2000/svg" id="youtube">
    <path d="M501.453 56.094c-5.902-21.934-23.195-39.223-45.125-45.13C416.262 0 255.996 0 255.996 0S95.734 0 55.668 10.547C34.16 16.449 16.445 34.164 10.543 56.094 0 96.156 0 179.242 0 179.242s0 83.504 10.543 123.149c5.906 21.93 23.195 39.222 45.129 45.129C96.156 358.484 256 358.484 256 358.484s160.262 0 200.328-10.546c21.934-5.903 39.223-23.196 45.129-45.125C512 262.745 512 179.663 512 179.663s.422-83.508-10.547-123.57zm0 0"
      fill="red"></path>
    <path d="M204.969 256l133.27-76.758-133.27-76.758zm0 0" fill="#fff"></path>
  </symbol>

  <symbol viewBox="0 -77 512.002 512" xmlns="http://www.w3.org/2000/svg" id="google">
    <path style="fill:#FBBB00;" d="M113.47,309.408L95.648,375.94l-65.139,1.378C11.042,341.211,0,299.9,0,256
      c0-42.451,10.324-82.483,28.624-117.732h0.014l57.992,10.632l25.404,57.644c-5.317,15.501-8.215,32.141-8.215,49.456
      C103.821,274.792,107.225,292.797,113.47,309.408z"/>
    <path style="fill:#518EF8;" d="M507.527,208.176C510.467,223.662,512,239.655,512,256c0,18.328-1.927,36.206-5.598,53.451
      c-12.462,58.683-45.025,109.925-90.134,146.187l-0.014-0.014l-73.044-3.727l-10.338-64.535
      c29.932-17.554,53.324-45.025,65.646-77.911h-136.89V208.176h138.887L507.527,208.176L507.527,208.176z"/>
    <path style="fill:#28B446;" d="M416.253,455.624l0.014,0.014C372.396,490.901,316.666,512,256,512
      c-97.491,0-182.252-54.491-225.491-134.681l82.961-67.91c21.619,57.698,77.278,98.771,142.53,98.771
      c28.047,0,54.323-7.582,76.87-20.818L416.253,455.624z"/>
    <path style="fill:#F14336;" d="M419.404,58.936l-82.933,67.896c-23.335-14.586-50.919-23.012-80.471-23.012
      c-66.729,0-123.429,42.957-143.965,102.724l-83.397-68.276h-0.014C71.23,56.123,157.06,0,256,0
      C318.115,0,375.068,22.126,419.404,58.936z"/>
  </symbol>

  <symbol 
      version="1.1" 
      id="phone-svg" 
      viewBox="0 0 34.546 34.546" 
      style="enable-background:new 0 0 34.546 34.546;" 
      xml:space="preserve"
    >
      <path d="M29.33,19.339c-2.326-0.545-5.3-1.969-6.377-3.737c-0.603-0.984-0.666-2.094-0.179-3.042
      c0.027-0.051,0.074-0.128,0.109-0.188c-0.028-0.209,0.021-0.486,0.172-0.847c0.011-0.024,0.012-0.027,0.02-0.044H11.122
      c0.006,0.014,0.006,0.014,0.014,0.032c0,0,0.001,0.001,0.001,0.002c0.268,0.418,0.502,0.792,0.627,1.033
      c0.495,0.961,0.431,2.07-0.17,3.055c-1.08,1.77-4.053,3.193-6.381,3.738L4.57,30.124c-0.07,1.183,0.705,2.149,1.723,2.149h21.958
      c1.018,0,1.792-0.967,1.721-2.149L29.33,19.339z M13.683,26.765h-2.062c-0.38,0-0.688-0.309-0.688-0.688s0.308-0.688,0.688-0.688
      h2.062c0.379,0,0.688,0.309,0.688,0.688S14.062,26.765,13.683,26.765z M13.683,24.143h-2.062c-0.38,0-0.688-0.308-0.688-0.687
      c0-0.382,0.308-0.688,0.688-0.688h2.062c0.379,0,0.688,0.306,0.688,0.688C14.371,23.835,14.062,24.143,13.683,24.143z
      M13.683,21.521h-2.062c-0.38,0-0.688-0.308-0.688-0.688c0-0.379,0.308-0.688,0.688-0.688h2.062c0.379,0,0.688,0.309,0.688,0.688
      S14.062,21.521,13.683,21.521z M18.304,26.765h-2.061c-0.38,0-0.688-0.309-0.688-0.688s0.309-0.688,0.688-0.688h2.062
      c0.379,0,0.688,0.309,0.688,0.688C18.991,26.456,18.683,26.765,18.304,26.765z M18.304,24.143h-2.061
      c-0.38,0-0.688-0.308-0.688-0.687c0-0.382,0.309-0.688,0.688-0.688h2.062c0.379,0,0.688,0.306,0.688,0.688
      C18.991,23.835,18.683,24.143,18.304,24.143z M18.304,21.521h-2.061c-0.38,0-0.688-0.308-0.688-0.688
      c0-0.379,0.309-0.688,0.688-0.688h2.062c0.379,0,0.688,0.309,0.688,0.688C18.991,21.212,18.683,21.521,18.304,21.521z
      M22.924,26.765h-2.062c-0.379,0-0.687-0.309-0.687-0.688s0.308-0.688,0.687-0.688h2.062c0.381,0,0.688,0.309,0.688,0.688
      C23.612,26.456,23.306,26.765,22.924,26.765z M22.924,24.143h-2.062c-0.379,0-0.687-0.308-0.687-0.687
      c0-0.382,0.308-0.688,0.687-0.688h2.062c0.381,0,0.688,0.306,0.688,0.688C23.612,23.835,23.306,24.143,22.924,24.143z
      M22.924,21.521h-2.062c-0.379,0-0.687-0.308-0.687-0.688c0-0.379,0.308-0.688,0.687-0.688h2.062c0.381,0,0.688,0.309,0.688,0.688
      C23.612,21.212,23.306,21.521,22.924,21.521z M34.372,13.114c-0.043,0.216-0.045,0.441-0.13,0.646
      c-0.497,1.202-1.429,2.197-2.115,3.305c-0.885,1.414-8.406-1.634-7.437-3.521c0.365-0.698,1.789-2.626,1.896-3.401
      c0.098-0.692-0.818-1.233-1.664-1.302c-2.232-0.181-5.083-0.017-7.452-0.002v0.002c-0.063,0-0.133-0.001-0.198-0.001
      c-0.064,0-0.134,0.001-0.197,0.001V8.839c-2.369-0.015-5.22-0.178-7.452,0.002c-0.846,0.069-1.762,0.61-1.665,1.302
      c0.108,0.775,1.531,2.703,1.896,3.401c0.971,1.887-6.55,4.935-7.435,3.521c-0.688-1.108-1.618-2.103-2.116-3.305
      c-0.084-0.205-0.086-0.43-0.129-0.646c-1.104-4.93,3.148-9.96,9.551-10.476c2.445-0.198,4.896-0.31,7.35-0.354V2.272
      c0.066,0.001,0.131,0.005,0.197,0.006c0.065-0.001,0.131-0.005,0.198-0.006v0.012c2.452,0.044,4.903,0.156,7.35,0.354
      C31.222,3.153,35.474,8.185,34.372,13.114z"/>
  </symbol>

    <symbol id='mail-svg' xmlns="http://www.w3.org/2000/svg" viewBox="0 0 483.3 483.3" style="enable-background:new 0 0 483.3 483.3;">
      <path d="M424.3,57.75H59.1c-32.6,0-59.1,26.5-59.1,59.1v249.6c0,32.6,26.5,59.1,59.1,59.1h365.1c32.6,0,59.1-26.5,59.1-59.1
        v-249.5C483.4,84.35,456.9,57.75,424.3,57.75z M456.4,366.45c0,17.7-14.4,32.1-32.1,32.1H59.1c-17.7,0-32.1-14.4-32.1-32.1v-249.5
        c0-17.7,14.4-32.1,32.1-32.1h365.1c17.7,0,32.1,14.4,32.1,32.1v249.5H456.4z"/>
      <path d="M304.8,238.55l118.2-106c5.5-5,6-13.5,1-19.1c-5-5.5-13.5-6-19.1-1l-163,146.3l-31.8-28.4c-0.1-0.1-0.2-0.2-0.2-0.3
        c-0.7-0.7-1.4-1.3-2.2-1.9L78.3,112.35c-5.6-5-14.1-4.5-19.1,1.1c-5,5.6-4.5,14.1,1.1,19.1l119.6,106.9L60.8,350.95
        c-5.4,5.1-5.7,13.6-0.6,19.1c2.7,2.8,6.3,4.3,9.9,4.3c3.3,0,6.6-1.2,9.2-3.6l120.9-113.1l32.8,29.3c2.6,2.3,5.8,3.4,9,3.4
        c3.2,0,6.5-1.2,9-3.5l33.7-30.2l120.2,114.2c2.6,2.5,6,3.7,9.3,3.7c3.6,0,7.1-1.4,9.8-4.2c5.1-5.4,4.9-14-0.5-19.1L304.8,238.55z"
        />
    </symbol>

    <symbol id='cargo-svg' xml:space="preserve" viewBox="0 0 512 512"  style="enable-background:new 0 0 512 512;">
      <g>
      <g>
        <path
          d="M476.158,231.363l-13.259-53.035c3.625-0.77,6.345-3.986,6.345-7.839v-8.551c0-18.566-15.105-33.67-33.67-33.67h-60.392
          V110.63c0-9.136-7.432-16.568-16.568-16.568H50.772c-9.136,0-16.568,7.432-16.568,16.568V256c0,4.427,3.589,8.017,8.017,8.017
          c4.427,0,8.017-3.589,8.017-8.017V110.63c0-0.295,0.239-0.534,0.534-0.534h307.841c0.295,0,0.534,0.239,0.534,0.534v145.372
          c0,4.427,3.589,8.017,8.017,8.017c4.427,0,8.017-3.589,8.017-8.017v-9.088h94.569c0.008,0,0.014,0.002,0.021,0.002
          c0.008,0,0.015-0.001,0.022-0.001c11.637,0.008,21.518,7.646,24.912,18.171h-24.928c-4.427,0-8.017,3.589-8.017,8.017v17.102
          c0,13.851,11.268,25.119,25.119,25.119h9.086v35.273h-20.962c-6.886-19.883-25.787-34.205-47.982-34.205
          s-41.097,14.322-47.982,34.205h-3.86v-60.393c0-4.427-3.589-8.017-8.017-8.017c-4.427,0-8.017,3.589-8.017,8.017v60.391H192.817
          c-6.886-19.883-25.787-34.205-47.982-34.205s-41.097,14.322-47.982,34.205H50.772c-0.295,0-0.534-0.239-0.534-0.534v-17.637
          h34.739c4.427,0,8.017-3.589,8.017-8.017s-3.589-8.017-8.017-8.017H8.017c-4.427,0-8.017,3.589-8.017,8.017
          s3.589,8.017,8.017,8.017h26.188v17.637c0,9.136,7.432,16.568,16.568,16.568h43.304c-0.002,0.178-0.014,0.355-0.014,0.534
          c0,27.996,22.777,50.772,50.772,50.772s50.772-22.776,50.772-50.772c0-0.18-0.012-0.356-0.014-0.534h180.67
          c-0.002,0.178-0.014,0.355-0.014,0.534c0,27.996,22.777,50.772,50.772,50.772c27.995,0,50.772-22.776,50.772-50.772
          c0-0.18-0.012-0.356-0.014-0.534h26.203c4.427,0,8.017-3.589,8.017-8.017v-85.511C512,251.989,496.423,234.448,476.158,231.363z
          M375.182,144.301h60.392c9.725,0,17.637,7.912,17.637,17.637v0.534h-78.029V144.301z M375.182,230.881v-52.376h71.235
          l13.094,52.376H375.182z M144.835,401.904c-19.155,0-34.739-15.583-34.739-34.739s15.584-34.739,34.739-34.739
          c19.155,0,34.739,15.583,34.739,34.739S163.99,401.904,144.835,401.904z M427.023,401.904c-19.155,0-34.739-15.583-34.739-34.739
          s15.584-34.739,34.739-34.739c19.155,0,34.739,15.583,34.739,34.739S446.178,401.904,427.023,401.904z M495.967,299.29h-9.086
          c-5.01,0-9.086-4.076-9.086-9.086v-9.086h18.171V299.29z"
        />
      </g>
      </g>
      <g>
        <g>
          <path
            d="M144.835,350.597c-9.136,0-16.568,7.432-16.568,16.568c0,9.136,7.432,16.568,16.568,16.568
        c9.136,0,16.568-7.432,16.568-16.568C161.403,358.029,153.971,350.597,144.835,350.597z"
          />
        </g>
      </g>
      <g>
        <g>
          <path
            d="M427.023,350.597c-9.136,0-16.568,7.432-16.568,16.568c0,9.136,7.432,16.568,16.568,16.568
        c9.136,0,16.568-7.432,16.568-16.568C443.591,358.029,436.159,350.597,427.023,350.597z"
          />
        </g>
      </g>
      <g>
        <g>
          <path
            d="M332.96,316.393H213.244c-4.427,0-8.017,3.589-8.017,8.017s3.589,8.017,8.017,8.017H332.96
        c4.427,0,8.017-3.589,8.017-8.017S337.388,316.393,332.96,316.393z"
          />
        </g>
      </g>
      <g>
        <g>
          <path
            d="M127.733,282.188H25.119c-4.427,0-8.017,3.589-8.017,8.017s3.589,8.017,8.017,8.017h102.614
        c4.427,0,8.017-3.589,8.017-8.017S132.16,282.188,127.733,282.188z"
          />
        </g>
      </g>
      <g>
        <g>
          <path
            d="M278.771,173.37c-3.13-3.13-8.207-3.13-11.337,0.001l-71.292,71.291l-37.087-37.087c-3.131-3.131-8.207-3.131-11.337,0
        c-3.131,3.131-3.131,8.206,0,11.337l42.756,42.756c1.565,1.566,3.617,2.348,5.668,2.348s4.104-0.782,5.668-2.348l76.96-76.96
        C281.901,181.576,281.901,176.501,278.771,173.37z"
          />
        </g>
      </g>
    </symbol>

    <symbol id='fence-svg' xml:space="preserve" viewBox="0 0 512 512"  style="enable-background:new 0 0 512 512;" >
      <g>
        <path d="M496.513,53.736h-23.146c-8.54,0-15.487,6.947-15.487,15.487v21.582H54.119V69.223c0-8.54-6.947-15.487-15.486-15.487
          H15.486C6.947,53.736,0,60.683,0,69.223v279.091v102.45c0,4.142,3.358,7.5,7.5,7.5h497c4.142,0,7.5-3.358,7.5-7.5V69.223
          C512,60.683,505.052,53.736,496.513,53.736z M472.88,69.223c0-0.269,0.219-0.487,0.487-0.487h23.146
          c0.269,0,0.487,0.218,0.487,0.487v263.074c-0.022-0.005-0.045-0.01-0.067-0.015c-0.038-0.009-0.076-0.016-0.114-0.025
          c-7.889-1.793-15.9-3.026-23.939-3.906V69.223z M54.119,105.805H457.88v22.247H54.119V105.805z M350.661,313.276l-19.715-19.716
          l19.715-19.714l19.715,19.715L350.661,313.276z M351.042,334.869c-0.311,0.056-0.621,0.114-0.932,0.17l0.551-0.551
          L351.042,334.869z M168.734,313.274L149.02,293.56l19.714-19.715l19.715,19.715L168.734,313.274z M170.508,336.261
          c-1.015-0.157-2.049-0.31-3.085-0.463l1.311-1.311L170.508,336.261z M58.056,263.239l19.714-19.714l19.715,19.715L77.77,282.954
          L58.056,263.239z M67.165,293.56L54.12,306.605v-26.091L67.165,293.56z M127.807,232.918l-19.715,19.715l-19.715-19.715
          l19.715-19.715L127.807,232.918z M118.698,202.597l19.715-19.715l19.715,19.715l-19.715,19.715L118.698,202.597z M138.413,243.524
          l19.715,19.715l-19.715,19.715l-19.715-19.715L138.413,243.524z M149.019,232.918l19.715-19.715l19.714,19.714l-19.714,19.716
          L149.019,232.918z M309.733,232.917l-19.715,19.715l-19.714-19.714l19.715-19.715L309.733,232.917z M300.625,202.597
          l19.715-19.715l19.714,19.715l-19.715,19.714L300.625,202.597z M259.697,222.312l-19.715-19.715l19.715-19.715l19.715,19.715
          L259.697,222.312z M249.092,232.919l-19.714,19.715l-19.716-19.716l19.715-19.714L249.092,232.919z M199.055,222.311
          l-19.714-19.714l19.714-19.714l19.715,19.714L199.055,222.311z M199.055,243.524l19.715,19.715l-19.715,19.715l-19.715-19.715
          L199.055,243.524z M229.377,273.845l19.715,19.715l-19.715,19.715l-19.715-19.715L229.377,273.845z M239.983,263.239
          l19.714-19.715l19.715,19.715l-19.715,19.714L239.983,263.239z M290.019,273.846l19.715,19.714l-19.715,19.715l-19.715-19.715
          L290.019,273.846z M300.624,263.239l19.715-19.715l19.715,19.715l-19.715,19.714L300.624,263.239z M330.946,232.918l19.715-19.714
          l19.714,19.714l-19.714,19.715L330.946,232.918z M361.266,202.597l19.715-19.715l19.715,19.715l-19.715,19.715L361.266,202.597z
          M380.981,243.524l19.715,19.715l-19.715,19.715l-19.714-19.715L380.981,243.524z M391.587,232.918l19.715-19.715l19.715,19.715
          l-19.715,19.715L391.587,232.918z M391.588,172.275l19.715-19.715l19.715,19.715l-19.715,19.715L391.588,172.275z M380.982,161.67
          l-18.618-18.618H399.6L380.982,161.67z M370.376,172.275l-19.715,19.715l-19.715-19.715l19.715-19.715L370.376,172.275z
          M320.34,161.67l-18.618-18.618h37.236L320.34,161.67z M309.734,172.275l-19.715,19.715l-19.715-19.715l19.715-19.715
          L309.734,172.275z M259.697,161.67l-18.618-18.618h37.236L259.697,161.67z M249.091,172.276l-19.715,19.714l-19.715-19.714
          l19.715-19.715L249.091,172.276z M199.055,161.67l-18.618-18.618h37.236L199.055,161.67z M188.448,172.276l-19.714,19.714
          l-19.715-19.715l19.714-19.714L188.448,172.276z M138.413,161.67l-18.618-18.618h37.236L138.413,161.67z M127.806,172.275
          l-19.714,19.715l-19.715-19.714l19.715-19.715L127.806,172.275z M77.771,161.67l-18.618-18.618h37.236L77.771,161.67z
          M97.486,202.597l-19.715,19.715l-19.715-19.715l19.715-19.715L97.486,202.597z M108.092,273.845l19.715,19.714l-19.715,19.715
          L88.377,293.56L108.092,273.845z M138.414,304.166l19.715,19.715l-9.577,9.577c-6.959-0.706-14.28-1.278-21.949-1.673
          l-7.904-7.904L138.414,304.166z M199.056,304.167l19.714,19.715l-18.236,18.236c-1.263-0.299-2.545-0.595-3.845-0.889
          l-17.348-17.348L199.056,304.167z M229.376,334.488l19.715,19.715l-2.365,2.366c-7.042-2.859-16.909-6.459-29.379-10.051
          L229.376,334.488z M239.982,323.881l19.715-19.715l19.715,19.715l-19.715,19.715L239.982,323.881z M290.018,334.487l11.65,11.65
          c-10.228,2.826-20.3,5.924-30.154,9.276l-1.211-1.211L290.018,334.487z M300.625,323.881l19.715-19.715l19.715,19.715
          l-16.738,16.738c-1.606,0.376-3.209,0.757-4.808,1.146L300.625,323.881z M380.982,304.166l19.715,19.715l-4.768,4.768
          c-8.736,0.828-17.642,1.898-26.67,3.224l-7.992-7.992L380.982,304.166z M391.588,293.56l19.715-19.715l19.715,19.715
          l-19.715,19.715L391.588,293.56z M441.624,304.166l16.256,16.256v6.705c-10.437-0.592-21.51-0.702-33.056-0.331l-2.915-2.915
          L441.624,304.166z M452.23,293.559l5.65-5.649v11.299L452.23,293.559z M441.624,282.953l-19.715-19.714l19.715-19.715
          l16.256,16.256v6.917L441.624,282.953z M452.23,232.917l5.65-5.649v11.299L452.23,232.917z M441.624,222.311l-19.715-19.715
          l19.715-19.715l16.256,16.257v6.917L441.624,222.311z M452.23,172.276l5.65-5.65v11.3L452.23,172.276z M441.624,161.669
          l-18.618-18.618h34.874v2.362L441.624,161.669z M54.119,159.23l13.045,13.045l-13.045,13.046V159.23z M54.119,219.873
          l13.045,13.045l-13.045,13.045V219.873z M77.771,304.166l19.715,19.715l-7.477,7.477c-11.426,0.314-23.406,1.062-35.889,2.337
          v-5.877h-0.001L77.771,304.166z M15,69.223c0-0.269,0.218-0.487,0.486-0.487h23.146c0.268,0,0.486,0.218,0.486,0.487v266.218
          h0.001c-8.067,1.08-16.112,2.348-24.119,3.805V69.223z M497.001,443.267H146.15v-0.003c6.522-6.235,13.423-12.068,20.588-17.549
          c6.613-5.058,13.457-9.826,20.475-14.306c3.491-2.229,4.514-6.866,2.285-10.357c-2.2-3.446-6.915-4.494-10.365-2.292
          c-7.841,5.007-15.257,10.216-22.245,15.599c-11.222,8.644-21.898,18.119-31.45,28.593c-0.096,0.104-0.196,0.208-0.291,0.312H15
          v-88.742c0.787-0.148,1.571-0.305,2.359-0.448c9.05-1.652,18.338-3.081,27.542-4.237c60.485-7.552,109.438-2.102,141.765,4.569
          c21.795,4.497,38.706,10.035,49.927,14.319c-10.14,4.336-20.145,9.037-29.92,14.145c-3.672,1.917-5.094,6.448-3.177,10.12
          c1.892,3.623,6.495,5.078,10.125,3.181c4.451-2.325,8.95-4.558,13.487-6.708c42.567-20.19,93.197-35.232,144.303-42.743
          c33.92-4.985,65.94-6.352,92.709-4.165c0.208,0.035,0.419,0.066,0.633,0.084c12.073,1.013,22.876,2.731,32.248,5.099V443.267z"/>
      </g>
    </symbol>

    <symbol id='measure-svg' xml:space="preserve" viewBox="1 -69 544.607 544" >
      <g id="surface1">
      <path
          d="M 186.742188 198.046875 C 231.867188 198.046875 268.667969 170.335938 268.667969 136.386719 C 268.667969 102.433594 231.976562 74.722656 186.742188 74.722656 C 141.507812 74.722656 104.816406 102.433594 104.816406 136.386719 C 104.816406 170.335938 141.617188 198.046875 186.742188 198.046875 Z M 186.742188 96.625 C 219.597656 96.625 246.761719 114.808594 246.761719 136.382812 C 246.761719 157.960938 219.269531 176.140625 186.742188 176.140625 C 154.210938 176.140625 126.71875 157.960938 126.71875 136.382812 C 126.71875 114.808594 154.210938 96.515625 186.742188 96.515625 Z M 186.742188 96.625 "
        />
        <path
          d="M 534.046875 250.292969 L 372.386719 250.292969 L 372.386719 136.273438 C 372.386719 61.359375 289.039062 0.355469 186.195312 0.355469 C 83.347656 0.355469 0 61.359375 0 136.273438 L 0 270.992188 C 0 339.992188 70.644531 396.945312 161.660156 405.597656 L 163.523438 405.597656 C 171.078125 406.257812 178.746094 406.804688 186.523438 406.804688 L 534.046875 406.804688 C 540.09375 406.804688 545 401.898438 545 395.851562 L 545 261.242188 C 545 255.199219 540.09375 250.292969 534.046875 250.292969 Z M 186.742188 22.367188 C 277.097656 22.367188 351.03125 73.515625 351.03125 136.386719 C 351.03125 199.253906 277.539062 250.402344 186.742188 250.402344 C 95.945312 250.402344 22.453125 199.253906 22.453125 136.382812 C 22.453125 73.515625 96.492188 22.367188 186.742188 22.367188 Z M 351.03125 200.238281 L 351.03125 250.292969 L 287.503906 250.292969 C 312.300781 239.054688 333.933594 221.859375 350.480469 200.238281 Z M 523.09375 384.898438 L 501.1875 384.898438 L 501.1875 329.476562 C 501.1875 323.433594 496.28125 318.523438 490.238281 318.523438 C 484.191406 318.523438 479.285156 323.429688 479.285156 329.476562 L 479.285156 385.007812 L 435.472656 385.007812 L 435.472656 354.886719 C 435.472656 348.839844 430.566406 343.933594 424.519531 343.933594 C 418.472656 343.933594 413.566406 348.839844 413.566406 354.886719 L 413.566406 385.007812 L 369.757812 385.007812 L 369.757812 354.886719 C 369.757812 348.839844 364.851562 343.933594 358.804688 343.933594 C 352.757812 343.933594 347.851562 348.839844 347.851562 354.886719 L 347.851562 385.007812 L 304.039062 385.007812 L 304.039062 329.476562 C 304.039062 323.433594 299.132812 318.523438 293.085938 318.523438 C 287.042969 318.523438 282.132812 323.429688 282.132812 329.476562 L 282.132812 385.007812 L 240.1875 385.007812 L 240.1875 354.886719 C 240.1875 348.839844 235.277344 343.933594 229.234375 343.933594 C 223.1875 343.933594 218.28125 348.839844 218.28125 354.886719 L 218.28125 385.007812 L 186.734375 385.007812 C 182.574219 385.007812 178.523438 385.007812 174.46875 385.007812 L 174.46875 354.886719 C 174.46875 348.839844 169.5625 343.933594 163.515625 343.933594 C 157.46875 343.933594 152.5625 348.839844 152.5625 354.886719 L 152.5625 382.378906 C 78.640625 371.425781 23 325.644531 23 270.882812 L 23 200.238281 C 54.324219 243.0625 115.988281 272.195312 187.289062 272.195312 L 523.09375 272.195312 Z M 523.09375 384.898438 "
        />
      </g>
    </symbol>

    <symbol id='brush-svg' xml:space="preserve" viewBox="-26 0 512 512.002"  >
      <path d="m420.089844 54.570312h-8.578125c-4.023438-10.414062-14.140625-17.820312-25.957031-17.820312h-9.800782c-1.410156-5.0625-3.210937-10.039062-5.40625-14.890625-6.007812-13.28125-19.304687-21.859375-33.878906-21.859375h-293.378906c-14.574219 0-27.871094 8.578125-33.878906 21.859375-12.28125 27.144531-12.28125 58.28125 0 85.425781 2.515624 5.558594 6.308593 10.292969 10.9375 13.921875v119.792969c0 19.851562 16.148437 36 36 36 19.851562 0 36-16.148438 36-36v-50.59375c0-8.058594 6.554687-14.613281 14.613281-14.613281 8.058593 0 14.609375 6.554687 14.609375 14.613281v9.753906c0 17.558594 14.285156 31.839844 31.839844 31.839844 17.554687 0 31.835937-14.28125 31.835937-31.839844v-27.300781c0-4.523437 3.679687-8.203125 8.203125-8.203125h36.792969c17.703125 0 32.105469-14.402344 32.105469-32.105469v-3.410156h74.316406c14.574218 0 27.875-8.578125 33.878906-21.855469 2.195312-4.851562 4-9.832031 5.410156-14.894531h9.796875c11.816407 0 21.9375-7.40625 25.960938-17.820313h8.578125c11.144531 0 20.210937 9.066407 20.210937 20.210938v44.390625c0 10.734375-8.007812 20.007813-18.628906 21.574219l-169.699219 24.988281c-14.304687 2.105469-27.382812 9.292969-36.832031 20.234375s-14.652344 24.929688-14.652344 39.386719v47.292969c0 .742187.082031 1.46875.238281 2.167968-10.578124.011719-19.179687 8.621094-19.179687 19.199219v23.921875c-6.925781.933594-12.28125 6.882812-12.28125 14.058594v119.285156c0 22.453125 18.269531 40.722656 40.722656 40.722656 22.449219 0 40.71875-18.269531 40.71875-40.722656v-119.285156c0-7.175782-5.355469-13.125-12.28125-14.0625v-23.921875c0-10.242188-8.0625-18.640625-18.179687-19.171875.160156-.707032.242187-1.441406.242187-2.195313v-47.289062c0-19.824219 14.789063-36.949219 34.398438-39.835938l169.699219-24.988281c20.359374-3 35.714843-20.78125 35.714843-41.359375v-44.390625c0-22.171875-18.039062-40.210938-40.210937-40.210938zm-177.9375 77.980469c0 6.675781-5.433594 12.105469-12.105469 12.105469h-36.796875c-15.550781 0-28.203125 12.652344-28.203125 28.203125v27.300781c0 6.527344-5.308594 11.839844-11.835937 11.839844-6.527344 0-11.835938-5.3125-11.835938-11.839844v-9.753906c0-19.085938-15.527344-34.613281-34.613281-34.613281-19.085938 0-34.609375 15.527343-34.609375 34.613281v50.59375c0 8.820312-7.179688 16-16 16-8.824219 0-16-7.179688-16-16v-111.976562c.234375.019531.472656.035156.714844.050781h.035156c.101562.007812.203125.015625.304687.019531.027344 0 .050781.003906.078125.003906.089844.003906.179688.007813.269532.011719.03125 0 .066406.003906.097656.003906.085937.003907.167968.003907.25.007813.039062 0 .078125.003906.113281.003906.082031.003906.160156.003906.238281.007812.042969 0 .082032 0 .125.003907.078125 0 .15625 0 .234375.003906h.125c.117188 0 .234375.003906.351563.003906h199.0625zm94.316406-23.410156h-293.378906c-.097656 0-.195313 0-.292969-.003906-.035156 0-.074219 0-.109375 0-.058594-.003907-.117188-.003907-.179688-.007813-.042968 0-.089843 0-.132812-.003906-.050781-.003906-.101562-.003906-.152344-.007812-.050781-.003907-.101562-.003907-.152344-.007813-.039062-.003906-.078124-.003906-.117187-.007813-.0625-.003906-.121094-.007812-.179687-.011718-.027344-.003906-.050782-.003906-.074219-.007813-.328125-.027343-.652344-.0625-.976563-.105469-.011718-.003906-.023437-.003906-.039062-.007812-.070313-.007812-.144532-.019531-.21875-.03125-.019532-.003906-.039063-.007812-.058594-.011719-.070312-.011719-.140625-.019531-.210938-.03125-.023437-.003906-.046874-.007812-.070312-.011719-.066406-.015624-.132812-.027343-.203125-.039062-.023437-.003906-.046875-.007812-.070313-.015625-.066406-.011719-.132812-.023437-.199218-.039063-.085938-.015624-.175782-.035156-.265625-.054687-.015625-.003906-.035157-.007813-.050781-.011719-.082032-.019531-.164063-.035156-.242188-.054687-.015625-.003907-.027344-.007813-.042969-.011719-.089843-.019531-.175781-.042969-.265625-.066406 0 0 0 0-.003906 0-4.953125-1.289063-9.179688-4.757813-11.347656-9.550782-4.828125-10.667968-7.300782-22.101562-7.425782-33.558593h100.644532c5.519531 0 10-4.476563 10-10 0-5.523438-4.480469-10-10-10h-98.445313c1.230469-5.242188 2.96875-10.394531 5.226563-15.378907 2.773437-6.136718 8.921875-10.101562 15.65625-10.101562h293.378906c6.734375 0 12.878906 3.964844 15.65625 10.101562 9.910156 21.90625 9.910156 47.03125 0 68.9375-2.777344 6.136719-8.921875 10.101563-15.65625 10.101563zm49.085938-36.75h-6.285157c.398438-5.207031.398438-10.429687 0-15.636719h6.285157c4.3125 0 7.816406 3.503906 7.816406 7.816406s-3.503906 7.820313-7.816406 7.820313zm-167.128907 265.417969h-16.878906v-22.996094h16.878906zm12.28125 133.472656c0 11.421875-9.296875 20.71875-20.71875 20.71875-11.425781 0-20.722656-9.292969-20.722656-20.71875v-113.472656h41.441406zm0 0"/><path d="m160.675781 45.480469h-.023437c-5.523438 0-9.988282 4.476562-9.988282 10 0 5.523437 4.488282 10 10.011719 10 5.523438 0 10-4.476563 10-10 0-5.523438-4.476562-10-10-10zm0 0"/></svg>
    </symbol>

    <symbol id='mail-svg' xml:space="preserve">
    </symbol>
</svg>