<svg width="0" height="0" class="hidden">
  <symbol xmlns="http://www.w3.org/2000/svg" viewBox="0 0 36.447 36.447" id="calendar">
    <path d="M30.224 3.948h-1.098V2.75c0-1.517-1.197-2.75-2.67-2.75-1.474 0-2.67 1.233-2.67 2.75v1.197h-2.74V2.75c0-1.517-1.197-2.75-2.67-2.75-1.473 0-2.67 1.233-2.67 2.75v1.197h-2.74V2.75c0-1.517-1.197-2.75-2.67-2.75-1.473 0-2.67 1.233-2.67 2.75v1.197H6.224a4.255 4.255 0 0 0-4.25 4.25v24a4.255 4.255 0 0 0 4.25 4.25h24a4.255 4.255 0 0 0 4.25-4.25v-24a4.255 4.255 0 0 0-4.25-4.249zM25.286 2.75c0-.689.525-1.25 1.17-1.25.646 0 1.17.561 1.17 1.25v4.896c0 .689-.524 1.25-1.17 1.25-.645 0-1.17-.561-1.17-1.25V2.75zm-8.08 0c0-.689.525-1.25 1.17-1.25s1.17.561 1.17 1.25v4.896c0 .689-.525 1.25-1.17 1.25s-1.17-.561-1.17-1.25V2.75zm-8.081 0c0-.689.525-1.25 1.17-1.25s1.17.561 1.17 1.25v4.896c0 .689-.525 1.25-1.17 1.25s-1.17-.561-1.17-1.25V2.75zm22.849 29.448c0 .965-.785 1.75-1.75 1.75h-24c-.965 0-1.75-.785-1.75-1.75v-22h27.5v22z"></path>
    <path d="M6.724 14.626h4.595v4.089H6.724zm6.133 0h4.596v4.089h-4.596zm6.138 0h4.595v4.089h-4.595zm6.133 0h4.596v4.089h-4.596zM6.724 20.084h4.595v4.086H6.724zm6.133 0h4.596v4.086h-4.596zm6.138 0h4.595v4.086h-4.595zm6.133 0h4.596v4.086h-4.596zM6.724 25.54h4.595v4.086H6.724zm6.133 0h4.596v4.086h-4.596zm6.138 0h4.595v4.086h-4.595zm6.133 0h4.596v4.086h-4.596z"></path>
  </symbol>
  <symbol xmlns="http://www.w3.org/2000/svg" viewBox="0 0 509.287 509.287" id="case">
    <circle cx="254.644" cy="254.644" r="254.644" fill="#f1f3f7"></circle>
    <path d="M338.395 155.634H170.554V84.429c0-17.632 14.241-32.212 32.212-32.212h103.756c17.632 0 32.212 14.241 32.212 32.212v71.205h-.339zm-150.549-17.631h132.917V84.429c0-8.138-6.442-14.58-14.58-14.58H202.766c-8.138 0-14.58 6.442-14.58 14.58v53.574h-.34z"
      fill="#74594e"></path>
    <path d="M441.812 103.756H67.475c-9.494 0-17.293 7.46-17.293 16.954v135.968h409.6V120.71c-.338-9.494-8.137-16.954-17.97-16.954z" fill="#886c60"></path>
    <path d="M55.947 256.678v135.968c0 9.494 7.46 16.954 16.954 16.954h363.486c9.494 0 16.954-7.46 16.954-16.954V256.678H55.947z" fill="#74594e"></path>
    <path fill="#fbd303" d="M207.852 227.179h93.245v50.522h-93.245z"></path>
  </symbol>
  <symbol xmlns="http://www.w3.org/2000/svg" viewBox="0 0 479.993 479.993" id="choise">
    <path d="M71.238 243.418c39.344 0 72.762 30.445 72.762 68v40l32 48h-32v32H80v48H0v-168c.915-38.44 32.797-68.873 71.238-68z" fill="#95c9fc"></path>
    <path d="M264 159.418a80.455 80.455 0 0 1-13.797-1.188l2.75-15.766a65.087 65.087 0 0 0 22.219-.016l2.781 15.75a79.883 79.883 0 0 1-13.953 1.22zm-39.922-10.656a80.117 80.117 0 0 1-21.281-17.82l12.234-10.312a64.044 64.044 0 0 0 17.047 14.273l-8 13.859zm79.969-.078l-8.016-13.844a64.196 64.196 0 0 0 17.016-14.297l12.25 10.281a79.913 79.913 0 0 1-21.25 17.86zm-115.188-41.758A79.399 79.399 0 0 1 184 79.59l16-.031a63.869 63.869 0 0 0 3.875 21.867l-15.016 5.5zm150.344-.156l-15.031-5.469A63.98 63.98 0 0 0 328 79.418l14.383-.266 1.609.008a79.92 79.92 0 0 1-4.789 27.61zM203.789 57.653l-15.047-5.438a79.713 79.713 0 0 1 13.852-24.086l12.281 10.266a63.585 63.585 0 0 0-11.086 19.258zm120.297-.352a63.702 63.702 0 0 0-11.195-19.195l12.219-10.328a79.856 79.856 0 0 1 13.992 23.976l-15.016 5.547zm-92.227-33.242l-8.047-13.828A79.318 79.318 0 0 1 249.89.661l2.812 15.75a63.443 63.443 0 0 0-20.843 7.648zm63.953-.195a63.346 63.346 0 0 0-20.883-7.523L277.632.575a79.183 79.183 0 0 1 26.148 9.414l-7.968 13.875zM400 479.418a80.455 80.455 0 0 1-13.797-1.188l2.75-15.766a64.687 64.687 0 0 0 22.219-.016l2.781 15.75a79.98 79.98 0 0 1-13.953 1.22zm-39.922-10.656a80.117 80.117 0 0 1-21.281-17.82l12.234-10.312a64.044 64.044 0 0 0 17.047 14.273l-8 13.859zm79.969-.078l-8.016-13.844a64.196 64.196 0 0 0 17.016-14.297l12.25 10.281a79.913 79.913 0 0 1-21.25 17.86zm-115.188-41.758A79.399 79.399 0 0 1 320 399.59l16-.031a63.869 63.869 0 0 0 3.875 21.867l-15.016 5.5zm150.344-.156l-15.031-5.469A63.98 63.98 0 0 0 464 399.418l14.383-.266 1.609.008a79.92 79.92 0 0 1-4.789 27.61zm-135.414-49.117l-15.047-5.438a79.713 79.713 0 0 1 13.852-24.086l12.281 10.266a63.585 63.585 0 0 0-11.086 19.258zm120.297-.352a63.702 63.702 0 0 0-11.195-19.195l12.219-10.328a79.849 79.849 0 0 1 13.992 23.977l-15.016 5.546zm-92.227-33.242l-8.047-13.828a79.318 79.318 0 0 1 26.078-9.57l2.812 15.75a63.443 63.443 0 0 0-20.843 7.648zm63.953-.195a63.346 63.346 0 0 0-20.883-7.523l2.703-15.766a79.183 79.183 0 0 1 26.148 9.414l-7.968 13.875zM400 287.418a80.455 80.455 0 0 1-13.797-1.188l2.75-15.766a65.087 65.087 0 0 0 22.219-.016l2.781 15.75a79.98 79.98 0 0 1-13.953 1.22zm-39.922-10.656a80.117 80.117 0 0 1-21.281-17.82l12.234-10.312a64.044 64.044 0 0 0 17.047 14.273l-8 13.859zm79.969-.078l-8.016-13.844a64.196 64.196 0 0 0 17.016-14.297l12.25 10.281a79.913 79.913 0 0 1-21.25 17.86zm-115.188-41.758A79.399 79.399 0 0 1 320 207.59l16-.031a63.869 63.869 0 0 0 3.875 21.867l-15.016 5.5zm150.344-.156l-15.031-5.469A63.98 63.98 0 0 0 464 207.418l14.383-.266 1.609.008a79.92 79.92 0 0 1-4.789 27.61zm-135.414-49.117l-15.047-5.438a79.713 79.713 0 0 1 13.852-24.086l12.281 10.266a63.585 63.585 0 0 0-11.086 19.258zm120.297-.352a63.702 63.702 0 0 0-11.195-19.195l12.219-10.328a79.849 79.849 0 0 1 13.992 23.977l-15.016 5.546zm-92.227-33.242l-8.047-13.828a79.318 79.318 0 0 1 26.078-9.57l2.812 15.75a63.443 63.443 0 0 0-20.843 7.648zm63.953-.195a63.346 63.346 0 0 0-20.883-7.523l2.703-15.766a79.183 79.183 0 0 1 26.148 9.414l-7.968 13.875z"
      fill="gold"></path>
    <path d="M79.249 243.872a76.017 76.017 0 0 0-8.011-.454h-.001c-38.441-.873-70.323 29.56-71.238 68v168h16v-168c.728-35.369 28.005-64.499 63.25-67.546z" fill="#5498fc"></path>
    <path d="M88 327.418h40v16H88v-16z" fill="#919190"></path>
    <path d="M80 263.418c-26.51 0-48 21.49-48 48h96c0-26.509-21.49-48-48-48z" fill="#fccc38"></path>
    <path d="M264 35.418l9.44 30.56H304l-24.72 18.88 9.44 30.56L264 96.53l-24.72 18.888 9.44-30.56L224 65.978h30.56l9.44-30.56z" fill="#f4393d"></path>
    <circle cx="400" cy="399.418" r="40" fill="#24db6a"></circle>
    <path d="M368 175.418h64v64h-64v-64z" fill="#17afdc"></path>
    <path d="M164.117 72.559l-40-24a8 8 0 0 0-12.118 6.859v16H64a7.995 7.995 0 0 0-8 7.991v136.009h16v-128h40v16a8 8 0 0 0 12.117 6.859l40-24a8 8 0 0 0 0-13.718zm136 328l-40-24a8 8 0 0 0-12.118 6.859v16h-24v-112a7.995 7.995 0 0 0-7.991-8h-40.009v16h32v112a7.995 7.995 0 0 0 7.991 8h32.009v16a8 8 0 0 0 12.117 6.859l40-24a8 8 0 0 0 .001-13.718zm0-192l-40-24a8 8 0 0 0-12.118 6.859v16h-72a7.995 7.995 0 0 0-8 7.991v24.009h-16v16h24a7.995 7.995 0 0 0 8-7.991v-24.009h64v16a8 8 0 0 0 12.117 6.859l40-24a8 8 0 0 0 .001-13.718z"
      fill="#f4393d"></path>
  </symbol>
  <symbol xmlns="http://www.w3.org/2000/svg" viewBox="0 0 512 512" id="garanty">
    <path d="M512 52.966h-52.966c0-14.627 11.855-26.483 26.483-26.483S512 38.338 512 52.966z" fill="#b5b5b5"></path>
    <path d="M79.448 26.483h406.069c-14.627 0-26.483 11.855-26.483 26.483v291.31h-61.793v-35.31l-.177-.353 22.775-10.417-13.771-24.541 13.771-24.541-25.6-11.741-3.266-27.983-27.63 5.473-19.068-20.657-19.068 20.657-27.63-5.473-3.266 27.983-25.6 11.741 13.771 24.541-13.771 24.541 22.775 10.417-.177.353v35.31H52.966V52.966c0-14.628 11.855-26.483 26.482-26.483z"
      fill="#e6e6e6"></path>
    <path d="M397.241 344.276h61.793c0 14.627-11.855 26.483-26.483 26.483h-35.31v-26.483z" fill="#b5b5b5"></path>
    <path d="M419.84 249.114l-13.771 24.541 13.771 24.541-22.775 10.417-2.825 1.324-3.266 27.983-27.63-5.473-19.068 20.657-19.068-20.657-27.63 5.473-3.266-27.983-2.825-1.324-22.775-10.417 13.771-24.541-13.771-24.541 25.6-11.741 3.266-27.983 27.63 5.473 19.068-20.657 19.068 20.657 27.63-5.473 3.266 27.983 25.6 11.741zm-40.254 24.541c0-19.5-15.81-35.31-35.31-35.31s-35.31 15.81-35.31 35.31 15.81 35.31 35.31 35.31c19.5.001 35.31-15.81 35.31-35.31z"
      fill="#ff8030"></path>
    <path fill="#fb5968" d="M397.241 370.759v114.758l-52.965-52.965-52.966 52.965V308.966l.177-.354 2.825 1.325 3.266 27.983 27.63-5.473 19.068 20.656 19.067-20.656 27.631 5.473 3.266-27.983 2.825-1.325.176.354v35.31z"></path>
    <circle cx="344.276" cy="273.655" r="35.31" fill="#ffdb6f"></circle>
    <path d="M291.31 344.276v26.483H26.483C11.855 370.759 0 358.903 0 344.276h291.31z" fill="#b5b5b5"></path>
    <path d="M185.379 70.621H326.62v17.655H185.379zm-88.276 52.965h317.793v17.655H97.103zm0 35.311h317.793v17.655H97.103zm8.828 114.758H220.69v17.655H105.931z" fill="#454545"></path>
  </symbol>
  <symbol xmlns="http://www.w3.org/2000/svg" viewBox="0 0 56 56" id="prices">
    <path d="M44.472 0H31.294L6.848 24.367l23.734 23.785L55 23.814v-13.31L44.472 0zm-1.457 14.87a2.935 2.935 0 1 1 0-5.87 2.935 2.935 0 0 1 0 5.87z" fill="#e7d4b1"></path>
    <path fill="#d3c2a4" d="M6.877 24.354L1 30.215 24.734 54l5.903-5.887z"></path>
    <path d="M43.015 9a2.935 2.935 0 1 1 0 5.87 2.935 2.935 0 0 1 0-5.87m0-4c-3.824 0-6.935 3.111-6.935 6.935s3.111 6.935 6.935 6.935c3.824 0 6.935-3.111 6.935-6.935S46.839 5 43.015 5z" fill="#cbb292"></path>
    <path d="M49 42.846l-1.444-.278c-2.143-.412-3.125-2.916-1.835-4.675l.907-1.236-1.958-1.958-1.217.825c-1.806 1.224-4.272.148-4.604-2.008L38.615 32h-2.769l-.359 1.865c-.403 2.096-2.818 3.096-4.585 1.899l-1.572-1.065-1.958 1.958.907 1.236c1.29 1.76.308 4.263-1.835 4.675L25 42.846v2.769l1.515.233c2.157.332 3.232 2.797 2.008 4.604l-.825 1.217 1.958 1.958 1.236-.907c1.76-1.29 4.263-.308 4.675 1.835L35.846 56h2.769l.164-1.066c.339-2.204 2.896-3.263 4.694-1.944l.869.638L46.3 51.67l-.825-1.217c-1.224-1.806-.148-4.272 2.008-4.604L49 45.615v-2.769z"
      fill="#556080"></path>
    <circle cx="37" cy="44" r="4" fill="#fff"></circle>
    <path d="M37 49c-2.757 0-5-2.243-5-5s2.243-5 5-5 5 2.243 5 5-2.243 5-5 5zm0-8c-1.654 0-3 1.346-3 3s1.346 3 3 3 3-1.346 3-3-1.346-3-3-3z" fill="#ecf0f1"></path>
  </symbol>
  <symbol xmlns="http://www.w3.org/2000/svg" viewBox="0 0 512 512" id="recycle">
    <path d="M452.995 89.378l-2.839-42.59c-.359-5.39-6.898-7.846-10.717-4.027L422.53 59.669c-95.732-78.437-237.219-72.982-326.581 16.38-26.788 26.789-46.036 58.262-57.746 91.784L2.794 191.52c-4.49 3.003-3.352 9.896 1.865 11.297l23.101 6.205C15.592 283.765 38.313 363.085 95.949 420.72c59.192 59.192 141.253 81.561 217.741 67.129l38.294 18.821c4.847 2.383 10.244-2.054 8.845-7.27l-6.182-23.05c31.345-11.854 60.738-30.396 85.973-55.632 90.855-90.853 94.975-235.59 12.375-331.34zm-81.31 262.406c-12.679 12.679-27.11 22.526-42.51 29.575l-5.357-19.978c-1.399-5.217-8.291-6.358-11.296-1.869l-22.397 33.453c-44.322 6.658-91.115-7.055-125.24-41.181-32.083-32.083-46.138-75.365-42.172-117.261l19.952 5.358c5.217 1.401 9.654-3.994 7.273-8.842l-17.753-36.152c7.133-18.173 18.013-35.215 32.699-49.902 51.232-51.231 131.001-56.468 188.109-15.778l-14.597 14.597c-3.819 3.819-1.362 10.358 4.026 10.717l40.159 2.677c45.917 57.413 42.301 141.388-10.896 194.586z"
      fill="#4fd255"></path>
    <path d="M475.218 186.273c3.795.253 6.943-2.896 6.691-6.691l-1.259-18.886-2.413-36.198a243.115 243.115 0 0 0-25.241-35.121l4.378 65.67c.253 3.795-2.896 6.943-6.691 6.691l-68.102-4.54a145.46 145.46 0 0 1 15.577 23.938l58.174 3.879 18.886 1.258zM313.69 487.849l-59.08-29.039c-3.414-1.677-4.567-5.978-2.451-9.139l37.966-56.705a146.997 146.997 0 0 1-28.494 1.49l-32.455 48.474-10.531 15.729c-2.116 3.16-.963 7.461 2.451 9.139l16.987 8.349 32.411 15.931a245.134 245.134 0 0 0 43.196-4.229zM102.115 133.647l30.071 61.24a145.016 145.016 0 0 1 12.984-25.398l-25.711-52.362-8.343-16.99c-1.676-3.414-5.977-4.569-9.138-2.454l-15.733 10.524-30.13 20.155a242.064 242.064 0 0 0-17.91 39.47l54.772-36.64c3.16-2.115 7.461-.96 9.138 2.455z"
      fill="#2cb855"></path>
  </symbol>
  <symbol xmlns="http://www.w3.org/2000/svg" viewBox="0 0 512 512" id="time">
    <path d="M280.496 0h-24.487l-10.451 14.606 10.452 16.742h24.487c15.122 0 27.425 12.302 27.425 27.424s-12.302 27.425-27.425 27.425H256.01l-10.451 16.184 10.451 15.164h24.487c32.408 0 58.773-26.365 58.773-58.773C339.269 26.365 312.904 0 280.496 0z" fill="#6f6f6f"></path>
    <path d="M231.523 86.196c-15.122 0-27.425-12.302-27.425-27.425 0-15.121 12.302-27.424 27.425-27.424h24.487V0h-24.487c-32.408 0-58.773 26.365-58.773 58.772 0 32.408 26.365 58.773 58.773 58.773h24.487V86.196h-24.487z" fill="#9d9d9d"></path>
    <path d="M256.01 55.558l-10.45 116.619c8.901 0 28.129.524 36.766 1.506V81.874c0-14.535-11.782-26.316-26.316-26.316z" fill="#027acd"></path>
    <path d="M229.694 81.874v91.809a232.61 232.61 0 0 1 26.316-1.506V55.558c-14.534 0-26.316 11.781-26.316 26.316z" fill="#3eaff5"></path>
    <path fill="#9d9d9d" d="M128.9 222.058l-48.564-48.563 22.167-22.166 48.562 48.563z"></path>
    <path fill="#6f6f6f" d="M360.96 199.891l48.563-48.563 22.166 22.167-48.563 48.562z"></path>
    <path fill="#d4d4d4" d="M73.222 202.763l-22.166-22.166 58.534-58.534 22.166 22.166z"></path>
    <path fill="#9d9d9d" d="M438.78 202.762l-58.534-58.534 22.166-22.166 58.533 58.533z"></path>
    <path d="M256.01 142.016l-20.9 184.992L256.01 512c102.168 0 184.992-82.823 184.992-184.992S358.177 142.016 256.01 142.016z" fill="#3eaff5"></path>
    <path d="M71.018 327.008C71.018 429.177 153.842 512 256.01 512V142.016c-102.168 0-184.992 82.824-184.992 184.992z" fill="#7acdff"></path>
    <path d="M162.141 255.296l-22.16-22.161 22.165-22.167 22.162 22.162zm187.723 187.742l-22.16-22.16 22.166-22.167 22.16 22.16zm-187.718.005l-22.166-22.166 22.16-22.16 22.166 22.165zm78.191 1.048h31.348v31.34h-31.348zm-132.75-132.76h31.34v31.348h-31.34z"
      fill="#027acd"></path>
    <path d="M360.902 222.117l-59.262 25.86-45.63 79.031h148.42c0-40.921-16.652-78.017-43.528-104.891z" fill="#ff9500"></path>
    <path d="M330.22 198.511c-21.844-12.665-47.194-19.924-74.21-19.924v148.42l104.892-104.892a149.434 149.434 0 0 0-30.682-23.604z" fill="#ffc222"></path>
    <path d="M420.104 342.681H240.336V162.913h15.674c28.824 0 57.203 7.621 82.072 22.039a165.127 165.127 0 0 1 33.902 26.08c31.03 31.029 48.12 72.216 48.12 115.975v15.674zm-148.42-31.348h116.157c-3.462-29.465-16.658-56.772-38.023-78.133a133.762 133.762 0 0 0-27.459-21.129c-15.568-9.026-32.844-14.756-50.675-16.879v116.141z"
      fill="#027acd"></path>
  </symbol>
</svg>