<svg width="0" height="0" class="hidden">
  <symbol xmlns="http://www.w3.org/2000/svg" viewBox="0 0 112.196 112.196" id="facebook">
    <circle cx="56.098" cy="56.098" r="56.098" fill="#3b5998"></circle>
    <path d="M70.201 58.294h-10.01v36.672H45.025V58.294h-7.213V45.406h7.213v-8.34c0-5.964 2.833-15.303 15.301-15.303l11.234.047v12.51h-8.151c-1.337 0-3.217.668-3.217 3.513v7.585h11.334l-1.325 12.876z" fill="#fff"></path>
  </symbol>
  <symbol viewBox="0 0 24 24" xmlns="http://www.w3.org/2000/svg" id="facebook_new">
    <path d="M21 0H3C1.345 0 0 1.345 0 3v18c0 1.654 1.345 3 3 3h18c1.654 0 3-1.346 3-3V3c0-1.655-1.346-3-3-3z" fill="#3b5999"></path>
    <path d="M16.5 12V9c0-.828.672-.75 1.5-.75h1.5V4.5h-3A4.5 4.5 0 0 0 12 9v3H9v3.75h3V24h4.5v-8.25h2.25l1.5-3.75z" fill="#fff"></path>
  </symbol>
  <symbol viewBox="0 0 24 24" xmlns="http://www.w3.org/2000/svg" id="instagram">
    <linearGradient id="a" gradientTransform="matrix(0 -1.982 -1.844 0 -132.522 -51.077)" gradientUnits="userSpaceOnUse" x1="-37.106" x2="-26.555" y1="-72.705" y2="-84.047">
      <stop offset="0" stop-color="#fd5"></stop>
      <stop offset=".5" stop-color="#ff543e"></stop>
      <stop offset="1" stop-color="#c837ab"></stop>
    </linearGradient>
    <path d="M1.5 1.633C-.386 3.592 0 5.673 0 11.995c0 5.25-.916 10.513 3.878 11.752 1.497.385 14.761.385 16.256-.002 1.996-.515 3.62-2.134 3.842-4.957.031-.394.031-13.185-.001-13.587-.236-3.007-2.087-4.74-4.526-5.091C18.89.029 18.778.005 15.91 0 5.737.005 3.507-.448 1.5 1.633z"
      fill="url(#a)"></path>
    <path d="M11.998 3.139c-3.631 0-7.079-.323-8.396 3.057-.544 1.396-.465 3.209-.465 5.805 0 2.278-.073 4.419.465 5.804 1.314 3.382 4.79 3.058 8.394 3.058 3.477 0 7.062.362 8.395-3.058.545-1.41.465-3.196.465-5.804 0-3.462.191-5.697-1.488-7.375-1.7-1.7-3.999-1.487-7.374-1.487zm-.794 1.597c7.574-.012 8.538-.854 8.006 10.843-.189 4.137-3.339 3.683-7.211 3.683-7.06 0-7.263-.202-7.263-7.265 0-7.145.56-7.257 6.468-7.263zm5.524 1.471a1.063 1.063 0 1 0 0 2.126 1.063 1.063 0 0 0 0-2.126zm-4.73 1.243a4.55 4.55 0 1 0 .001 9.101 4.55 4.55 0 0 0-.001-9.101zm0 1.597c3.905 0 3.91 5.908 0 5.908-3.904 0-3.91-5.908 0-5.908z"
      fill="#fff"></path>
  </symbol>
  <symbol xmlns="http://www.w3.org/2000/svg" viewBox="0 0 291.319 291.319" id="pinterest">
    <path d="M145.659 0c80.45 0 145.66 65.219 145.66 145.66 0 80.45-65.21 145.659-145.66 145.659S0 226.109 0 145.66C0 65.219 65.21 0 145.659 0z" fill="#c8232c"></path>
    <path d="M150.066 63.781c-51.327 0-77.19 35.632-77.19 65.337 0 17.989 7.028 33.993 22.122 39.956 2.467.974 4.698.036 5.408-2.613l2.203-8.403c.728-2.613.446-3.541-1.548-5.826-4.361-4.962-7.128-11.398-7.128-20.511 0-26.428 20.42-50.089 53.175-50.089 29.014 0 44.945 17.161 44.945 40.075 0 30.152-13.783 55.606-34.248 55.606-11.289 0-19.755-9.04-17.042-20.156 3.241-13.237 9.541-27.539 9.541-37.107 0-8.548-4.743-15.704-14.575-15.704-11.553 0-20.829 11.571-20.829 27.074 0 9.878 3.45 16.551 3.45 16.551l-13.901 56.998c-4.124 16.906-.61 37.644-.319 39.738.182 1.238 1.821 1.529 2.567.601 1.065-1.347 14.821-17.798 19.5-34.239 1.329-4.652 7.602-28.75 7.602-28.75 3.751 6.946 14.721 13.046 26.383 13.046 34.712 0 58.273-30.652 58.273-71.674-.011-31.015-27.14-59.91-68.389-59.91z"
      fill="#fff"></path>
  </symbol>
  <symbol viewBox="0 0 512 512" xmlns="http://www.w3.org/2000/svg" xmlns:xlink="http://www.w3.org/1999/xlink" id="twitter">
    <linearGradient id="b" gradientUnits="userSpaceOnUse" x1="169.994" x2="299.493" y1="71.986" y2="349.055">
      <stop offset="0" stop-color="#00c3ff"></stop>
      <stop offset="1" stop-color="#00b0ed"></stop>
    </linearGradient>
    <linearGradient id="a">
      <stop offset="0" stop-color="#00b0ed" stop-opacity="0"></stop>
      <stop offset="1" stop-color="#00a2ce"></stop>
    </linearGradient>
    <linearGradient id="c" gradientUnits="userSpaceOnUse" x1="364.283" x2="-379.586" xlink:href="#a" y1="314.087" y2="-84.952"></linearGradient>
    <linearGradient id="d" gradientUnits="userSpaceOnUse" x1="256" x2="256" xlink:href="#a" y1="437.383" y2="504.472"></linearGradient>
    <linearGradient id="e" gradientUnits="userSpaceOnUse" x1="489.421" x2="239.294" xlink:href="#a" y1="482.072" y2="231.945"></linearGradient>
    <path d="M420.422 503.234c-109.504 11.688-219.34 11.688-328.844 0-43.664-4.66-78.152-39.148-82.812-82.816-11.688-109.504-11.688-219.336 0-328.84 4.66-43.664 39.148-78.152 82.812-82.812 109.504-11.688 219.336-11.688 328.84 0 43.668 4.66 78.156 39.148 82.816 82.812 11.688 109.504 11.688 219.336 0 328.84-4.66 43.668-39.144 78.156-82.812 82.816zm0 0"
      fill="#00c3ff"></path>
    <path d="M475.387 110.098c-4.133-38.746-34.735-69.352-73.485-73.489-97.172-10.367-194.632-10.367-291.804 0-38.746 4.137-69.352 34.743-73.489 73.489-10.367 97.172-10.367 194.632 0 291.8 4.137 38.75 34.743 69.356 73.489 73.489 97.172 10.37 194.632 10.37 291.8 0 38.75-4.133 69.356-34.739 73.489-73.489 10.37-97.168 10.37-194.628 0-291.8zm0 0"
      fill="#00c3ff"></path>
    <path d="M7.672 409.805c.351 3.539.715 7.078 1.094 10.617 4.66 43.664 39.148 78.152 82.816 82.812 109.504 11.688 219.336 11.688 328.84 0 43.668-4.66 78.152-39.148 82.812-82.812.38-3.54.743-7.078 1.098-10.617zm0 0" fill="#00c3ff"></path>
    <path d="M511.89 238.008L405.614 131.734c-11.91 6.809-22.406 10.586-30.312 12.68-4.446 1.191-8.074 1.84-10.684 2.195-11.984-12.285-28.719-19.914-47.242-19.914-36.445 0-65.996 29.547-65.996 66 0 1.317.035 2.618.121 3.914.176 3.16.578 6.266 1.2 9.286-15.216-.227-64.669-4.29-111.833-44.72-.004 0-.004-.003-.004-.003h-.004l-22.242-22.246s-26.094 45.543 12.27 80.101a73.208 73.208 0 0 0 5.562 5.559c.16.18.328.355.489.535-5.036-.34-20.18-1.848-28.946-8.039 0 0-1.762 27.836 21.43 48.328l18.726 18.887c-5.703.473-12.011.36-16.398-1.563 0 0 3.883 16.489 18.89 29.684l26.235 26.371c-15.738 9.168-43.29 20.64-79.555 17.711L256.465 512a1548.15 1548.15 0 0 0 163.957-8.766c43.668-4.66 78.156-39.148 82.816-82.812a1548.862 1548.862 0 0 0 8.653-182.414zm0 0"
      fill="#00c3ff"></path>
    <path d="M414.684 157.367c-11.329 5.926-28.391 8.664-34.047 9.453l-.14-.797c19.23-11.894 25.116-34.289 25.116-34.289-11.91 6.809-22.406 10.586-30.312 12.68-4.446 1.191-8.074 1.836-10.684 2.195-11.984-12.289-28.719-19.914-47.242-19.914-36.445 0-65.996 29.543-65.996 66 0 1.313.035 2.618.121 3.91.176 3.16.578 6.266 1.2 9.286-17.641-.262-81.317-5.672-134.083-66.965 0 0-29.383 51.265 20.016 86.285 0 0-20.016-.625-30.64-8.129 0 0-3.126 49.398 53.769 65.023 0 0-20.004 5.008-30.016.63 0 0 10.008 42.515 60.027 45.648 0 0-35.875 32.844-94.457 28.117 28.813 18.242 62.973 28.8 99.598 28.8 102.98 0 186.465-83.48 186.465-186.46 0-1.285-.012-2.57-.04-3.856.028-.761.04-1.52.04-2.289 0-.535-.012-1.07-.02-1.605 19.04-12.688 31.325-33.723 31.325-33.723zm0 0"
      fill="#fff"></path>
  </symbol>
  <symbol viewBox="0 -77 512.002 512" xmlns="http://www.w3.org/2000/svg" id="youtube">
    <path d="M501.453 56.094c-5.902-21.934-23.195-39.223-45.125-45.13C416.262 0 255.996 0 255.996 0S95.734 0 55.668 10.547C34.16 16.449 16.445 34.164 10.543 56.094 0 96.156 0 179.242 0 179.242s0 83.504 10.543 123.149c5.906 21.93 23.195 39.222 45.129 45.129C96.156 358.484 256 358.484 256 358.484s160.262 0 200.328-10.546c21.934-5.903 39.223-23.196 45.129-45.125C512 262.745 512 179.663 512 179.663s.422-83.508-10.547-123.57zm0 0"
      fill="red"></path>
    <path d="M204.969 256l133.27-76.758-133.27-76.758zm0 0" fill="#fff"></path>
  </symbol>
</svg>