
<!-- <?xml version="1.0" encoding="iso-8859-1"?> -->
<!-- Generator: Adobe Illustrator 19.0.0, SVG Export Plug-In . SVG Version: 6.00 Build 0)  -->
<svg version="1.1" id="Layer_1" xmlns="http://www.w3.org/2000/svg" xmlns:xlink="http://www.w3.org/1999/xlink" x="0px" y="0px"
	 viewBox="0 0 512 512" style="enable-background:new 0 0 512 512;" xml:space="preserve">
<path style="fill:#6F6F6F;" d="M280.496,0h-24.487l-10.451,14.606l10.452,16.742h24.487c15.122,0,27.425,12.302,27.425,27.424
	c0,15.122-12.302,27.425-27.425,27.425H256.01l-10.451,16.184l10.451,15.164h24.487c32.408,0,58.773-26.365,58.773-58.773
	C339.269,26.365,312.904,0,280.496,0z"/>
<path style="fill:#9D9D9D;" d="M231.523,86.196c-15.122,0-27.425-12.302-27.425-27.425c0-15.121,12.302-27.424,27.425-27.424h24.487
	V0h-24.487c-32.408,0-58.773,26.365-58.773,58.772c0,32.408,26.365,58.773,58.773,58.773h24.487V86.196H231.523z"/>
<path style="fill:#027ACD;" d="M256.01,55.558L245.56,172.177c8.901,0,28.129,0.524,36.766,1.506V81.874
	C282.326,67.339,270.544,55.558,256.01,55.558z"/>
<path style="fill:#3EAFF5;" d="M229.694,81.874v91.809c8.638-0.983,17.415-1.506,26.316-1.506V55.558
	C241.476,55.558,229.694,67.339,229.694,81.874z"/>
<rect x="81.361" y="171.018" transform="matrix(-0.7071 -0.7071 0.7071 -0.7071 65.5028 400.5153)" style="fill:#9D9D9D;" width="68.679" height="31.348"/>
<rect x="361.989" y="171.017" transform="matrix(0.7071 -0.7071 0.7071 0.7071 -15.9285 334.9276)" style="fill:#6F6F6F;" width="68.679" height="31.348"/>
<rect x="75.733" y="121.021" transform="matrix(-0.7071 -0.7071 0.7071 -0.7071 41.199 341.8875)" style="fill:#D4D4D4;" width="31.348" height="82.78"/>
<rect x="379.203" y="146.734" transform="matrix(-0.7071 -0.7071 0.7071 -0.7071 603.1581 574.6517)" style="fill:#9D9D9D;" width="82.78" height="31.348"/>
<path style="fill:#3EAFF5;" d="M256.01,142.016l-20.9,184.992L256.01,512c102.168,0,184.992-82.823,184.992-184.992
	S358.177,142.016,256.01,142.016z"/>
<path style="fill:#7ACDFF;" d="M71.018,327.008C71.018,429.177,153.842,512,256.01,512V142.016
	C153.842,142.016,71.018,224.84,71.018,327.008z"/>
<g>
	
		<rect x="146.473" y="217.456" transform="matrix(-0.7071 -0.7071 0.7071 -0.7071 111.9494 512.63)" style="fill:#027ACD;" width="31.341" height="31.348"/>
	
		<rect x="334.198" y="405.195" transform="matrix(-0.7071 -0.7071 0.7071 -0.7071 299.6621 965.8629)" style="fill:#027ACD;" width="31.34" height="31.348"/>
	
		<rect x="146.47" y="405.205" transform="matrix(-0.7071 -0.7071 0.7071 -0.7071 -20.8057 833.1322)" style="fill:#027ACD;" width="31.348" height="31.34"/>
	<rect x="240.337" y="444.091" style="fill:#027ACD;" width="31.348" height="31.34"/>
	<rect x="107.587" y="311.331" style="fill:#027ACD;" width="31.34" height="31.348"/>
</g>
<path style="fill:#FF9500;" d="M360.902,222.117l-59.262,25.86l-45.63,79.031l0,0h148.42
	C404.43,286.087,387.778,248.991,360.902,222.117L360.902,222.117z"/>
<path style="fill:#FFC222;" d="M330.22,198.511c-21.844-12.665-47.194-19.924-74.21-19.924v148.42l104.892-104.892
	C351.769,212.985,341.463,205.029,330.22,198.511z"/>
<path style="fill:#027ACD;" d="M420.104,342.681H240.336V162.913h15.674c28.824,0,57.203,7.621,82.072,22.039
	c12.348,7.16,23.755,15.934,33.902,26.08l0,0c31.03,31.029,48.12,72.216,48.12,115.975V342.681z M271.684,311.333h116.157
	c-3.462-29.465-16.658-56.772-38.023-78.133c-8.224-8.224-17.463-15.332-27.459-21.129c-15.568-9.026-32.844-14.756-50.675-16.879
	V311.333z"/>
<g>
</g>
<g>
</g>
<g>
</g>
<g>
</g>
<g>
</g>
<g>
</g>
<g>
</g>
<g>
</g>
<g>
</g>
<g>
</g>
<g>
</g>
<g>
</g>
<g>
</g>
<g>
</g>
<g>
</g>
</svg>
